<svg width="17" height="17" viewBox="0 0 17 17" fill="none" xmlns="http://www.w3.org/2000/svg">
<path d="M10.0439 3.33856L12.1177 1.26479C12.2872 1.09525 12.5172 1 12.7571 1C12.9969 1 13.2269 1.09525 13.3965 1.26479L15.7352 3.60354C15.9048 3.77314 16 4.00313 16 4.24294C16 4.48276 15.9048 4.71275 15.7352 4.88235L13.6614 6.95611M10.0439 3.33856L1.5 11.5C1.33038 11.6696 1.00005 12.517 1 12.7569L1.15234 15.1914C1.15234 15.1914 1.24429 15.3304 1.4139 15.5C1.58351 15.6696 1.65234 15.6914 1.65234 15.6914L4.24314 16C4.48298 15.9999 5.33043 15.6696 5.5 15.5L13.6614 6.95611M10.0439 3.33856L13.6614 6.95611" stroke="white" stroke-width="2" stroke-linecap="round" stroke-linejoin="round"/>
</svg>
