<svg width="16" height="16" viewBox="0 0 16 16" fill="none" xmlns="http://www.w3.org/2000/svg">
<path d="M10.999 4.275C10.999 4.65293 10.841 5.01539 10.5597 5.28263C10.2784 5.54987 9.89682 5.7 9.499 5.7C9.10117 5.7 8.71964 5.54987 8.43834 5.28263C8.15704 5.01539 7.999 4.65293 7.999 4.275C7.999 3.89707 8.15704 3.53461 8.43834 3.26737C8.71964 3.00013 9.10117 2.85 9.499 2.85C9.89682 2.85 10.2784 3.00013 10.5597 3.26737C10.841 3.53461 10.999 3.89707 10.999 4.275ZM9.999 4.275C9.999 4.14902 9.94632 4.0282 9.85255 3.93912C9.75879 3.85004 9.63161 3.8 9.499 3.8C9.36639 3.8 9.23921 3.85004 9.14545 3.93912C9.05168 4.0282 8.999 4.14902 8.999 4.275C8.999 4.40098 9.05168 4.5218 9.14545 4.61088C9.23921 4.69996 9.36639 4.75 9.499 4.75C9.63161 4.75 9.75879 4.69996 9.85255 4.61088C9.94632 4.5218 9.999 4.40098 9.999 4.275ZM0 2.85C0 2.09413 0.316071 1.36922 0.87868 0.834746C1.44129 0.300267 2.20435 0 3 0H10.999C11.7946 0 12.5577 0.300267 13.1203 0.834746C13.6829 1.36922 13.999 2.09413 13.999 2.85V5.7019C13.6546 5.71677 13.3159 5.79047 12.999 5.91945V2.85C12.999 2.34609 12.7883 1.86282 12.4132 1.5065C12.0381 1.15018 11.5294 0.95 10.999 0.95H2.999C2.46857 0.95 1.95986 1.15018 1.58479 1.5065C1.20971 1.86282 0.999 2.34609 0.999 2.85V10.449C0.999 10.8024 1.102 11.134 1.279 11.418L5.948 7.05945C6.22848 6.79778 6.60589 6.65117 6.999 6.65117C7.39211 6.65117 7.76952 6.79778 8.05 7.05945L9.795 8.6887L9.088 9.36035L7.35 7.7368C7.25649 7.64948 7.13062 7.60055 6.9995 7.60055C6.86838 7.60055 6.74251 7.64948 6.649 7.7368L1.988 12.0878C2.29458 12.2596 2.64405 12.3502 3 12.35H6.474C6.458 12.3975 6.444 12.4479 6.431 12.4973L6.22 13.3H3C2.20435 13.3 1.44129 12.9997 0.87868 12.4653C0.316071 11.9308 0 11.2059 0 10.45V2.85ZM7.979 11.7572L12.808 7.1687C13.1589 6.83561 13.6347 6.64859 14.1307 6.64877C14.6267 6.64895 15.1024 6.83631 15.453 7.16965C15.8036 7.50299 16.0005 7.95499 16.0003 8.42622C16.0001 8.89745 15.8029 9.34932 15.452 9.6824L10.623 14.269C10.3416 14.5364 9.98908 14.7262 9.603 14.8181L8.105 15.1743C7.95601 15.2095 7.79999 15.2074 7.6521 15.1683C7.50421 15.1293 7.36947 15.0545 7.26097 14.9513C7.15248 14.8482 7.07391 14.7201 7.03291 14.5796C6.99192 14.439 6.98988 14.2908 7.027 14.1493L7.401 12.7262C7.498 12.3595 7.697 12.0242 7.979 11.7572Z" fill="white"/>
</svg>
