<svg width="51" height="51" viewBox="0 0 51 51" fill="none" xmlns="http://www.w3.org/2000/svg">
<g clip-path="url(#clip0_1033_3168)">
<mask id="mask0_1033_3168" style="mask-type:luminance" maskUnits="userSpaceOnUse" x="0" y="0" width="51" height="51">
<path d="M0.5 0.5H50.5V50.5H0.5V0.5Z" fill="white"/>
</mask>
<g mask="url(#mask0_1033_3168)">
<path d="M17.5906 18.4688C17.7978 18.4688 17.9965 18.3864 18.1431 18.2399C18.2896 18.0934 18.3719 17.8947 18.3719 17.6875C18.3719 17.4803 18.2896 17.2816 18.1431 17.1351C17.9965 16.9886 17.7978 16.9062 17.5906 16.9062C17.3834 16.9062 17.1847 16.9886 17.0382 17.1351C16.8917 17.2816 16.8094 17.4803 16.8094 17.6875C16.8094 17.8947 16.8917 18.0934 17.0382 18.2399C17.1847 18.3864 17.3834 18.4688 17.5906 18.4688ZM5.77344 17.6875C5.77344 17.8947 5.69113 18.0934 5.54461 18.2399C5.3981 18.3864 5.19939 18.4688 4.99219 18.4688C4.78499 18.4688 4.58627 18.3864 4.43976 18.2399C4.29325 18.0934 4.21094 17.8947 4.21094 17.6875C4.21094 17.4803 4.29325 17.2816 4.43976 17.1351C4.58627 16.9886 4.78499 16.9062 4.99219 16.9062C5.19939 16.9062 5.3981 16.9886 5.54461 17.1351C5.69113 17.2816 5.77344 17.4803 5.77344 17.6875ZM14.0469 24.1078L12.7844 22.8859C12.4408 22.5562 11.9825 22.373 11.5063 22.375C11.0422 22.375 10.5797 22.5453 10.2281 22.8859L8.96563 24.1078C8.79916 24.2648 8.66654 24.4542 8.57589 24.6643C8.48525 24.8744 8.43849 25.1009 8.43849 25.3297C8.43849 25.5585 8.48525 25.7849 8.57589 25.9951C8.66654 26.2052 8.79916 26.3945 8.96563 26.5516C9.66875 27.2328 10.7875 27.2328 11.4906 26.5516L11.5063 26.5359L11.5219 26.5516C12.225 27.2328 13.3438 27.2328 14.0469 26.5516C14.7344 25.8719 14.7344 24.7891 14.0469 24.1078ZM11.4688 25.1578C11.1952 25.1578 10.9329 25.0492 10.7395 24.8558C10.5461 24.6624 10.4375 24.4001 10.4375 24.1266C10.4375 23.8531 10.5461 23.5908 10.7395 23.3974C10.9329 23.204 11.1952 23.0953 11.4688 23.0953C11.7423 23.0953 12.0046 23.204 12.198 23.3974C12.3914 23.5908 12.5 23.8531 12.5 24.1266C12.5 24.4001 12.3914 24.6624 12.198 24.8558C12.0046 25.0492 11.7423 25.1578 11.4688 25.1578ZM9.32812 22.375C9.32812 22.7894 9.1635 23.1868 8.87048 23.4799C8.57745 23.7729 8.18003 23.9375 7.76563 23.9375C7.35122 23.9375 6.9538 23.7729 6.66077 23.4799C6.36775 23.1868 6.20313 22.7894 6.20313 22.375C6.20313 21.9606 6.36775 21.5632 6.66077 21.2701C6.9538 20.9771 7.35122 20.8125 7.76563 20.8125C8.18003 20.8125 8.57745 20.9771 8.87048 21.2701C9.1635 21.5632 9.32812 21.9606 9.32812 22.375ZM16.7969 22.375C16.7969 22.7894 16.6323 23.1868 16.3392 23.4799C16.0462 23.7729 15.6488 23.9375 15.2344 23.9375C14.82 23.9375 14.4225 23.7729 14.1295 23.4799C13.8365 23.1868 13.6719 22.7894 13.6719 22.375C13.6719 21.9606 13.8365 21.5632 14.1295 21.2701C14.4225 20.9771 14.82 20.8125 15.2344 20.8125C15.6488 20.8125 16.0462 20.9771 16.3392 21.2701C16.6323 21.5632 16.7969 21.9606 16.7969 22.375Z" fill="black"/>
<path d="M32.9827 5.19151L32.928 5.18839H32.7718C28.4843 5.10558 27.1311 10.8368 30.8499 12.7728C32.6983 13.7384 34.2171 14.9946 35.3139 16.5071C34.5518 16.7645 33.8651 17.2063 33.315 17.7933C32.7649 18.3802 32.3684 19.094 32.1608 19.8712C28.9815 20.3169 26.1 21.9809 24.1249 24.5118C23.609 24.0782 23.0143 23.7482 22.3733 23.54C22.3624 22.3723 22.1781 21.2128 21.8265 20.0993C22.3743 19.1732 22.6001 18.0918 22.4687 17.0238C22.3373 15.9559 21.856 14.9615 21.1 14.1958C20.344 13.4301 19.3557 12.9363 18.2895 12.7914C17.2233 12.6464 16.1391 12.8586 15.2061 13.3946C14.0169 12.9691 12.763 12.7524 11.4999 12.754C10.1983 12.754 8.95301 12.979 7.79364 13.3946C6.86548 12.8606 5.78723 12.6473 4.72565 12.7876C3.66407 12.9279 2.67829 13.4141 1.92075 14.1709C1.16322 14.9277 0.676126 15.9131 0.534807 16.9745C0.393488 18.036 0.605814 19.1144 1.13895 20.0431C0.714188 21.2331 0.497481 22.4873 0.498325 23.7509V34.6259C0.498325 43.3868 7.61864 50.5009 16.389 50.5009H34.6233C43.3968 50.5009 50.514 43.3837 50.514 34.6103V22.8759C50.514 13.054 42.5702 5.52589 32.9827 5.19151ZM32.2952 10.0009C31.4514 9.56339 31.7796 8.28214 32.7327 8.31339H32.8733L33.1639 8.32745H33.1702C34.2281 8.3842 35.2776 8.54699 36.303 8.81339C42.6733 10.4775 47.389 16.04 47.389 22.8759V34.6103C47.389 41.6571 41.6702 47.3759 34.6233 47.3759H16.389C9.34208 47.3759 3.62332 41.6571 3.62332 34.6259V23.7509C3.62332 23.2306 3.67332 22.7212 3.7702 22.229C3.97242 21.1898 4.38504 20.2029 4.9827 19.329C4.54543 19.2333 4.16297 18.9702 3.91707 18.5962C3.64067 18.2239 3.5235 17.757 3.59133 17.2982C3.65917 16.8395 3.90645 16.4265 4.27879 16.1501C4.65113 15.8737 5.11802 15.7565 5.57675 15.8244C6.03549 15.8922 6.44848 16.1395 6.72489 16.5118C6.89364 16.7196 7.01707 16.965 7.07645 17.2353C8.37907 16.3455 9.92083 15.8715 11.4983 15.8759C13.0758 15.8715 14.6176 16.3455 15.9202 17.2353C16.0145 16.8048 16.2707 16.4272 16.6358 16.1806C17.0067 15.9021 17.473 15.7824 17.9322 15.8477C18.3914 15.9131 18.8058 16.1581 19.0843 16.529C19.3627 16.8999 19.4825 17.3662 19.4171 17.8254C19.3518 18.2846 19.1067 18.699 18.7358 18.9775C18.5264 19.1501 18.279 19.2706 18.014 19.329C18.1892 19.5868 18.3458 19.8568 18.4827 20.1368C18.8046 20.7962 19.0171 21.5087 19.1358 22.2587C19.2129 22.7523 19.2505 23.2513 19.2483 23.7509V25.7415C18.8801 25.6415 18.5002 25.591 18.1186 25.5915H16.3921C16.152 25.5911 15.9142 25.638 15.6922 25.7295C15.4703 25.821 15.2685 25.9553 15.0985 26.1247C14.9284 26.2942 14.7934 26.4955 14.7012 26.7172C14.6089 26.9388 14.5612 27.1764 14.5608 27.4165V29.1353C14.5608 29.604 14.6483 30.0743 14.7874 30.4915C15.189 30.2306 15.5202 29.8665 15.6936 29.3978C15.8868 28.93 16.2544 28.5558 16.7186 28.3543C17.1828 28.1528 17.7072 28.1397 18.1808 28.318C18.6544 28.4962 19.0401 28.8518 19.2563 29.3093C19.4724 29.7669 19.5021 30.2906 19.3389 30.7696C19.2043 31.1212 19.0374 31.4597 18.8405 31.7806C18.4117 32.4019 17.8764 32.9426 17.2593 33.3775C16.3046 34.0587 15.2296 34.4603 14.2999 34.4603H11.0343L11.378 35.49C12.6327 39.2478 16.1436 41.1571 20.1233 41.1571H26.2796V41.1259C26.4868 41.1259 26.6855 41.0436 26.832 40.8971C26.9785 40.7506 27.0608 40.5518 27.0608 40.3446V36.4384C27.0608 34.1592 27.9662 31.9733 29.5779 30.3617C31.1895 28.75 33.3754 27.8446 35.6546 27.8446H36.4358C36.643 27.8446 36.8417 27.7623 36.9883 27.6158C37.1348 27.4693 37.2171 27.2706 37.2171 27.0634V25.1103C37.2171 24.7995 37.3405 24.5014 37.5603 24.2816C37.7801 24.0619 38.0781 23.9384 38.389 23.9384C38.6997 23.9384 38.9978 24.0619 39.2176 24.2816C39.4374 24.5014 39.5608 24.7995 39.5608 25.1103V27.0634C39.5608 27.2706 39.6431 27.4693 39.7896 27.6158C39.9362 27.7623 40.1349 27.8446 40.3421 27.8446C40.5493 27.8446 40.748 27.7623 40.8945 27.6158C41.041 27.4693 41.1233 27.2706 41.1233 27.0634V25.1103C41.1233 24.3899 40.8452 23.7353 40.389 23.2462V22.6259C40.3883 21.7411 40.3067 20.8583 40.1452 19.9884C39.9372 18.882 39.5874 17.807 39.1046 16.79C38.1546 14.7915 36.7202 13.0837 34.9483 11.7025C34.2923 11.1892 33.5987 10.726 32.8733 10.3165L32.8046 10.2775L32.7327 10.2384L32.6702 10.204L32.2952 10.0009ZM38.6233 22.3853C38.2458 22.3528 37.8657 22.3991 37.507 22.5213C37.1484 22.6435 36.8191 22.8389 36.5399 23.0952C36.2608 23.3514 36.0379 23.6628 35.8855 24.0097C35.7331 24.3566 35.6545 24.7314 35.6546 25.1103V26.2821C34.1107 26.2807 32.587 26.6319 31.1995 27.3089C29.812 27.9858 28.5974 28.9707 27.6483 30.1884H24.8296C25.0352 29.2294 25.3928 28.3094 25.8889 27.4634C26.7053 26.0664 27.8736 24.9077 29.2772 24.1028C30.6808 23.2979 32.2709 22.8749 33.889 22.8759H35.1233V21.1259C35.1229 20.896 35.1679 20.6682 35.2557 20.4557C35.3435 20.2432 35.4724 20.0501 35.635 19.8875C35.7976 19.7249 35.9906 19.5961 36.2031 19.5083C36.4156 19.4205 36.6434 19.3755 36.8733 19.3759C37.1033 19.3755 37.331 19.4205 37.5435 19.5083C37.756 19.5961 37.9491 19.7249 38.1117 19.8875C38.2743 20.0501 38.4031 20.2432 38.491 20.4557C38.5788 20.6682 38.6237 20.896 38.6233 21.1259V22.3853ZM26.6421 31.7509C25.8882 33.1982 25.4958 34.8065 25.4983 36.4384V39.5946H20.1233C17.0577 39.5946 14.5405 38.3321 13.303 36.0228H14.2999C15.6436 36.0228 17.028 35.4603 18.1671 34.6478C18.6851 34.2799 19.1585 33.8531 19.578 33.3759H20.5421C20.9924 33.3768 21.4271 33.2114 21.763 32.9115C22.0989 32.6117 22.3124 32.1984 22.3624 31.7509H26.6421ZM22.3733 29.8306C22.3733 28.4243 21.6905 27.1821 20.6374 26.4103L20.7483 26.4071C21.0276 26.4063 21.3043 26.4607 21.5625 26.5672C21.8207 26.6737 22.0553 26.8302 22.2528 27.0277C22.4503 27.2252 22.6068 27.4598 22.7132 27.718C22.8197 27.9762 22.8741 28.2528 22.8733 28.5321L22.8718 28.6259C22.8599 28.9102 22.7908 29.1892 22.6686 29.4462L22.6561 29.4696C22.5796 29.6259 22.4843 29.7696 22.3733 29.9025V29.8306Z" fill="black"/>
</g>
</g>
<defs>
<clipPath id="clip0_1033_3168">
<rect width="50" height="50" fill="white" transform="translate(0.5 0.5)"/>
</clipPath>
</defs>
</svg>
