<svg width="20" height="17" viewBox="0 0 20 17" fill="none" xmlns="http://www.w3.org/2000/svg">
<path d="M17 5.92388C17.7956 5.92388 18.5587 6.23594 19.1213 6.79141C19.6839 7.34688 20 8.10026 20 8.88582V11.8478C20 12.6333 19.6839 13.3867 19.1213 13.9422C18.5587 14.4976 17.7956 14.8097 17 14.8097V15.7634C17 16.81 15.764 17.3817 14.95 16.7113L12.638 14.8097H10C9.20435 14.8097 8.44129 14.4976 7.87868 13.9422C7.31607 13.3867 7 12.6333 7 11.8478V8.88582C7 8.10026 7.31607 7.34688 7.87868 6.79141C8.44129 6.23594 9.20435 5.92388 10 5.92388H17ZM14 0C14.7956 0 15.5587 0.312061 16.1213 0.867532C16.6839 1.423 17 2.17638 17 2.96194V3.94925H9C7.93913 3.94925 6.92172 4.36533 6.17157 5.10596C5.42143 5.84659 5 6.8511 5 7.89851V11.8478C5 12.8785 5.4 13.8184 6.056 14.5214L5 15.3034C4.176 15.9135 3 15.333 3 14.316V12.8351C2.20435 12.8351 1.44129 12.523 0.87868 11.9675C0.316071 11.4121 0 10.6587 0 9.87313V2.96194C0 2.17638 0.316071 1.423 0.87868 0.867532C1.44129 0.312061 2.20435 0 3 0H14Z" fill="#9B9B9B"/>
</svg>
