<svg width="108" height="8" viewBox="0 0 108 8" fill="none" xmlns="http://www.w3.org/2000/svg">
<g clip-path="url(#clip0_1489_4388)">
<path d="M4 0C1.788 0 0 1.788 0 4C0 6.212 1.788 8 4 8C6.212 8 8 6.212 8 4C8 1.788 6.212 0 4 0Z" fill="white"/>
<path d="M24 0C21.788 0 20 1.788 20 4C20 6.212 21.788 8 24 8C26.212 8 28 6.212 28 4C28 1.788 26.212 0 24 0Z" fill="white"/>
<path d="M44 0C41.788 0 40 1.788 40 4C40 6.212 41.788 8 44 8C46.212 8 48 6.212 48 4C48 1.788 46.212 0 44 0Z" fill="white"/>
<path d="M64 0C61.788 0 60 1.788 60 4C60 6.212 61.788 8 64 8C66.212 8 68 6.212 68 4C68 1.788 66.212 0 64 0Z" fill="white"/>
<path d="M84 0C81.788 0 80 1.788 80 4C80 6.212 81.788 8 84 8C86.212 8 88 6.212 88 4C88 1.788 86.212 0 84 0Z" fill="white"/>
<path d="M104 0C101.788 0 100 1.788 100 4C100 6.212 101.788 8 104 8C106.212 8 108 6.212 108 4C108 1.788 106.212 0 104 0Z" fill="white"/>
</g>
<defs>
<clipPath id="clip0_1489_4388">
<rect width="108" height="8" fill="white"/>
</clipPath>
</defs>
</svg>
