<svg width="20" height="20" viewBox="0 0 20 20" fill="none" xmlns="http://www.w3.org/2000/svg">
<path d="M19.6561 13.4844L18.1473 12.7227L19.3079 12.4492C19.674 12.3633 19.8927 12.0312 19.7945 11.7109L19.6159 11.1289C19.5177 10.8086 19.1383 10.6172 18.7723 10.7031L15.6118 11.4453L12.7594 10L15.6073 8.55859L18.7678 9.30078C19.1338 9.38672 19.5133 9.19531 19.6115 8.875L19.79 8.29297C19.8882 7.97266 19.6695 7.64062 19.3035 7.55469L18.1428 7.28125L19.6516 6.51953C19.982 6.35156 20.0936 5.98438 19.9061 5.69531L19.2142 4.64844C19.0222 4.35937 18.6026 4.26172 18.2723 4.42578L16.7635 5.1875L17.076 4.17188C17.1742 3.85156 16.9554 3.51953 16.5894 3.43359L15.9243 3.27734C15.5582 3.19141 15.1788 3.38281 15.0806 3.70313L14.2325 6.46875L11.4291 7.88281V4.85547L13.8262 2.75781C14.103 2.51562 14.103 2.11719 13.8262 1.875L13.3218 1.43359C13.0451 1.19141 12.5897 1.19141 12.313 1.43359L11.4291 2.20313V0.625C11.4291 0.28125 11.1077 0 10.7149 0H9.28645C8.89362 0 8.57222 0.28125 8.57222 0.625V2.20313L7.69283 1.43359C7.41607 1.19141 6.96075 1.19141 6.68399 1.43359L6.1751 1.875C5.89387 2.11719 5.89387 2.51562 6.1751 2.75781L8.57222 4.85547V7.88281L5.76888 6.46875L4.92074 3.70313C4.82254 3.38281 4.4431 3.19141 4.07706 3.27734L3.41194 3.43359C3.0459 3.51953 2.82717 3.85156 2.92537 4.17188L3.23785 5.1875L1.72905 4.42578C1.39872 4.25781 0.979109 4.35937 0.787161 4.64844L0.0952545 5.69141C-0.0966937 5.98047 0.019368 6.34766 0.349697 6.51563L1.8585 7.27734L0.697882 7.55078C0.327378 7.63672 0.108646 7.96875 0.206852 8.29297L0.385409 8.875C0.483615 9.19531 0.863047 9.38672 1.22909 9.30078L4.38954 8.55859L7.23751 10L4.38954 11.4414L1.22909 10.6992C0.863047 10.6133 0.483615 10.8047 0.385409 11.125L0.206852 11.707C0.108646 12.0273 0.327378 12.3594 0.693418 12.4453L1.85404 12.7188L0.345233 13.4844C0.0149041 13.6523 -0.0966937 14.0195 0.0907906 14.3086L0.782697 15.3555C0.974645 15.6445 1.39425 15.7422 1.72458 15.5781L3.23338 14.8164L2.92091 15.832C2.8227 16.1523 3.04144 16.4844 3.40748 16.5703L4.0726 16.7266C4.43864 16.8125 4.81807 16.6211 4.91628 16.3008L5.76442 13.5352L8.56776 12.1211V15.1484L6.17064 17.2461C5.88941 17.4883 5.88941 17.8867 6.17064 18.1289L6.67506 18.5703C6.95182 18.8125 7.40714 18.8125 7.6839 18.5703L8.56329 17.8008V19.375C8.56329 19.7188 8.88469 20 9.27752 20H10.706C11.0988 20 11.4202 19.7188 11.4202 19.375V17.7969L12.2996 18.5664C12.5763 18.8086 13.0317 18.8086 13.3084 18.5664L13.8129 18.125C14.0896 17.8828 14.0896 17.4844 13.8129 17.2422L11.4291 15.1445V12.1172L14.2325 13.5312L15.0806 16.2969C15.1788 16.6172 15.5582 16.8086 15.9243 16.7227L16.5894 16.5664C16.9554 16.4805 17.1742 16.1484 17.076 15.8281L16.7635 14.8125L18.2723 15.5742C18.6026 15.7422 19.0222 15.6406 19.2142 15.3516L19.9061 14.3047C20.098 14.0195 19.9864 13.6484 19.6561 13.4844Z" fill="#4C4A48"/>
</svg>
