<svg width="20" height="20" viewBox="0 0 20 20" fill="none" xmlns="http://www.w3.org/2000/svg">
<path d="M11.8803 1.06641C14.3019 1.07056 16.8113 2.16449 18.3953 4.00078C18.3953 4.00078 14.9752 4.07188 14.3815 5.78536C13.4225 8.55278 18.4349 8.23973 18.5072 12.5675C18.5616 15.8281 15.0166 19.1987 11.6283 19.2008C11.4637 19.2557 4.52075 19.2008 4.52075 19.2008C3.74797 19.1899 3.71582 18.3199 6.42747 17.7697C0.740276 11.9941 9.81583 11.5559 9.76559 15.9814C10.467 15.2469 9.74305 12.0824 5.9495 12.238C4.66395 13.1552 3.92539 13.3072 2.49012 12.9913C2.21738 12.9312 2.01942 11.9887 2.70348 11.9341L3.94489 11.8349C5.04278 10.8318 5.49864 10.8205 4.39911 10.0008C1.70887 10.7062 1.19911 9.60078 1.197 9.0695C1.19817 8.0986 1.56915 5.52915 3.76856 5.40485C4.06938 5.00208 3.38614 3.76259 3.92297 3.72684C4.66571 3.67739 5.89493 4.83688 5.73024 5.43727C6.44645 5.7402 7.20137 6.48914 7.99911 7.60078C10.7068 8.59414 12.7084 13.3378 12.7341 14.4313C12.7568 7.30489 7.09028 7.30766 7.59911 4.80078C8.14872 2.09281 9.87383 1.06298 11.8803 1.06641ZM3.0259 6.78524C2.74606 6.78524 2.51918 7.01212 2.51918 7.292C2.51918 7.57184 2.74606 7.79872 3.0259 7.79872C3.32669 7.79872 3.53266 7.57184 3.53266 7.292C3.53266 7.01212 3.33742 6.78524 3.0259 6.78524Z" fill="#4C4A48"/>
</svg>
