<svg width="26" height="25" viewBox="0 0 26 25" fill="none" xmlns="http://www.w3.org/2000/svg">
<g clip-path="url(#clip0_1889_6051)">
<path d="M13 0.390625C6.31055 0.390625 0.890625 5.81055 0.890625 12.5C0.890625 19.1895 6.31055 24.6094 13 24.6094C19.6895 24.6094 25.1094 19.1895 25.1094 12.5C25.1094 5.81055 19.6895 0.390625 13 0.390625ZM5.50977 8.24707L7.21387 8.00293L7.9707 6.45996C8.1123 6.17676 8.50781 6.17676 8.64941 6.45996L9.40625 8.00293L11.1104 8.24707C11.4131 8.2959 11.5449 8.66699 11.3203 8.8916L10.0801 10.0928L10.373 11.7969C10.4219 12.0996 10.1143 12.334 9.83594 12.1826L8.3125 11.3916L6.78418 12.1875C6.50586 12.3389 6.19824 12.1045 6.24707 11.8018L6.54004 10.0977L5.2998 8.89648C5.0752 8.66699 5.20703 8.2959 5.50977 8.24707ZM13 21.0938C10.041 21.0938 6.43262 19.2236 5.97852 16.5381C5.88086 15.9619 6.43262 15.4883 6.98926 15.6641C8.46387 16.1377 10.6562 16.4062 13 16.4062C15.3438 16.4062 17.5361 16.1377 19.0107 15.6641C19.5723 15.4834 20.1143 15.9619 20.0215 16.5381C19.5674 19.2236 15.959 21.0938 13 21.0938ZM20.7002 8.8916L19.46 10.0928L19.7529 11.7969C19.8018 12.0996 19.4941 12.334 19.2158 12.1826L17.6875 11.3916L16.1592 12.1875C15.8809 12.3389 15.5732 12.1045 15.6221 11.8018L15.915 10.0977L14.6748 8.89648C14.4551 8.67187 14.582 8.30078 14.8848 8.25195L16.5889 8.00781L17.3457 6.46484C17.4873 6.18164 17.8828 6.18164 18.0244 6.46484L18.7812 8.00781L20.4854 8.25195C20.793 8.2959 20.9248 8.66699 20.7002 8.8916Z" fill="#F6F6F6"/>
</g>
<defs>
<clipPath id="clip0_1889_6051">
<rect width="25" height="25" fill="white" transform="translate(0.5)"/>
</clipPath>
</defs>
</svg>
