<svg width="26" height="23" viewBox="0 0 26 23" fill="none" xmlns="http://www.w3.org/2000/svg">
<path d="M23.5612 8.56542L20.2867 7.44482C19.3453 7.12255 18.649 6.42333 18.4244 5.5747L17.6437 2.62304C17.0782 0.485834 13.9049 -0.16651 12.2736 1.51855L10.0206 3.84619C9.37316 4.51562 8.38293 4.86816 7.37414 4.78906L3.86437 4.51464C1.32287 4.31591 -0.380256 6.70605 0.982049 8.55908L2.86389 11.1186C3.4049 11.8545 3.48986 12.772 3.09045 13.5718L1.70226 16.354C0.696893 18.3682 2.8175 20.498 5.29064 19.958L8.70666 19.2119C9.68859 18.9976 10.7306 19.2119 11.4933 19.7847L14.1456 21.7783C16.0655 23.2217 19.0792 22.1479 19.2457 19.9609L19.4752 16.9404C19.5411 16.0718 20.1002 15.2871 20.9708 14.8413L23.9982 13.2915C26.1896 12.1704 25.9313 9.37695 23.5612 8.56542Z" fill="#F6F6F6"/>
</svg>
