<svg width="22" height="25" viewBox="0 0 22 25" fill="none" xmlns="http://www.w3.org/2000/svg">
<path d="M21.5632 16.8555L19.9128 15.9033L21.1823 15.5615C21.5827 15.4541 21.822 15.0391 21.7145 14.6387L21.5192 13.9111C21.4118 13.5107 20.9968 13.2715 20.5964 13.3789L17.1393 14.3066L14.0192 12.5L17.1345 10.6982L20.5915 11.626C20.9919 11.7334 21.4069 11.4941 21.5143 11.0937L21.7097 10.3662C21.8171 9.96582 21.5778 9.55078 21.1774 9.44336L19.9079 9.10156L21.5583 8.14941C21.9196 7.93945 22.0417 7.48047 21.8366 7.11914L21.0798 5.81055C20.8698 5.44922 20.4108 5.32715 20.0495 5.53223L18.3991 6.48438L18.7409 5.21484C18.8483 4.81445 18.6091 4.39941 18.2087 4.29199L17.4811 4.09668C17.0808 3.98926 16.6657 4.22852 16.5583 4.62891L15.6306 8.08594L12.5642 9.85352V6.06934L15.1862 3.44727C15.489 3.14453 15.489 2.64648 15.1862 2.34375L14.6345 1.79199C14.3317 1.48926 13.8337 1.48926 13.531 1.79199L12.5642 2.75391V0.78125C12.5642 0.351562 12.2126 0 11.7829 0H10.2204C9.79072 0 9.43915 0.351562 9.43915 0.78125V2.75391L8.47724 1.79199C8.17451 1.48926 7.67646 1.48926 7.37372 1.79199L6.81708 2.34375C6.50947 2.64648 6.50947 3.14453 6.81708 3.44727L9.43915 6.06934V9.85352L6.37275 8.08594L5.44501 4.62891C5.33759 4.22852 4.92255 3.98926 4.52216 4.09668L3.79462 4.29199C3.39423 4.39941 3.15497 4.81445 3.2624 5.21484L3.60419 6.48438L1.9538 5.53223C1.59247 5.32227 1.13349 5.44922 0.923529 5.81055L0.166693 7.11426C-0.0432676 7.47559 0.0836855 7.93457 0.445014 8.14453L2.0954 9.09668L0.825873 9.43848C0.4206 9.5459 0.181342 9.96094 0.288764 10.3662L0.484076 11.0937C0.591498 11.4941 1.00654 11.7334 1.40693 11.626L4.86396 10.6982L7.97919 12.5L4.86396 14.3018L1.40693 13.374C1.00654 13.2666 0.591498 13.5059 0.484076 13.9062L0.288764 14.6338C0.181342 15.0342 0.4206 15.4492 0.82099 15.5566L2.09052 15.8984L0.440131 16.8555C0.0788027 17.0654 -0.0432676 17.5244 0.161811 17.8857L0.918646 19.1943C1.12861 19.5557 1.58759 19.6777 1.94892 19.4727L3.59931 18.5205L3.25751 19.79C3.15009 20.1904 3.38935 20.6055 3.78974 20.7129L4.51728 20.9082C4.91767 21.0156 5.33271 20.7764 5.44013 20.376L6.36787 16.9189L9.43427 15.1514V18.9355L6.8122 21.5576C6.50458 21.8604 6.50458 22.3584 6.8122 22.6611L7.36396 23.2129C7.66669 23.5156 8.16474 23.5156 8.46747 23.2129L9.42939 22.251V24.2188C9.42939 24.6484 9.78095 25 10.2106 25H11.7731C12.2028 25 12.5544 24.6484 12.5544 24.2188V22.2461L13.5163 23.208C13.819 23.5107 14.3171 23.5107 14.6198 23.208L15.1716 22.6562C15.4743 22.3535 15.4743 21.8555 15.1716 21.5527L12.5642 18.9307V15.1465L15.6306 16.9141L16.5583 20.3711C16.6657 20.7715 17.0808 21.0107 17.4811 20.9033L18.2087 20.708C18.6091 20.6006 18.8483 20.1855 18.7409 19.7852L18.3991 18.5156L20.0495 19.4678C20.4108 19.6777 20.8698 19.5508 21.0798 19.1895L21.8366 17.8809C22.0466 17.5244 21.9245 17.0605 21.5632 16.8555Z" fill="#F6F6F6"/>
</svg>
