<svg width="30" height="30" viewBox="0 0 30 30" fill="none" xmlns="http://www.w3.org/2000/svg">
<path d="M25.7693 11.8578L25.8447 12.121L26.107 12.1993L29.4188 13.1879C29.433 13.1967 29.445 13.2086 29.4539 13.2228C29.4658 13.2418 29.4716 13.264 29.4706 13.2865L29.47 13.2983V13.3102V16.7185C29.4697 16.7417 29.4622 16.7642 29.4484 16.7828C29.4347 16.8012 29.4157 16.8149 29.394 16.8219L26.0278 17.8208L25.7672 17.8981L25.6904 18.1589C25.4663 18.9197 25.1615 19.6544 24.7812 20.3504L24.6516 20.5878L24.7792 20.8262L26.4384 23.9247C26.4385 23.9248 26.4386 23.925 26.4387 23.9252C26.4496 23.946 26.4535 23.9697 26.45 23.9929C26.4464 24.0162 26.4354 24.0379 26.4186 24.0545L26.4164 24.0566L24.0264 26.4466L24.0243 26.4487C24.0077 26.4655 23.9861 26.4766 23.9627 26.4801C23.9394 26.4837 23.9156 26.4797 23.8948 26.4687C23.8947 26.4686 23.8946 26.4686 23.8945 26.4686L20.7854 24.8091L20.548 24.6823L20.3115 24.8107C19.6181 25.1871 18.8867 25.4886 18.1295 25.7103L17.8679 25.7869L17.7905 26.0483L16.7917 29.4243C16.7847 29.446 16.771 29.4649 16.7527 29.4785C16.7341 29.4923 16.7116 29.4999 16.6884 29.5002H13.3116C13.2884 29.4999 13.2659 29.4923 13.2473 29.4785C13.229 29.4649 13.2153 29.4459 13.2082 29.4242L12.2093 26.0579L12.1315 25.7957L11.8687 25.7198C11.105 25.4992 10.367 25.1976 9.66744 24.8201L9.43124 24.6927L9.19448 24.8191L6.1055 26.4686C6.10548 26.4686 6.10547 26.4686 6.10545 26.4686C6.08456 26.4797 6.06066 26.4837 6.03729 26.4801C6.01391 26.4766 5.99229 26.4656 5.97567 26.4487L5.97355 26.4466L3.58356 24.0566L3.58143 24.0545C3.5646 24.0379 3.55358 24.0162 3.55001 23.9929C3.54644 23.9695 3.5505 23.9456 3.56161 23.9247L3.56319 23.9216L5.20319 20.7816L5.32906 20.5406L5.19521 20.304C4.79585 19.5979 4.47495 18.8502 4.23824 18.0743L4.16015 17.8183L3.90381 17.7413L0.577532 16.7424C0.577162 16.7423 0.576792 16.7422 0.576423 16.7421C0.554516 16.735 0.535346 16.7213 0.521628 16.7028C0.507821 16.6842 0.500254 16.6617 0.5 16.6385V13.2618C0.500254 13.2386 0.50782 13.2161 0.52163 13.1975C0.535389 13.1789 0.554637 13.1652 0.576639 13.1582C0.576938 13.1581 0.577237 13.158 0.577536 13.1579L3.8846 12.1588L4.14265 12.0808L4.21934 11.8224C4.4535 11.0333 4.77446 10.2726 5.17635 9.55428L5.31055 9.31442L5.17995 9.07258L3.5616 6.07565C3.56143 6.07534 3.56127 6.07503 3.56111 6.07471C3.55038 6.05404 3.54649 6.03049 3.55001 6.00745C3.55353 5.98438 3.5643 5.96304 3.58074 5.94651L6.00911 3.5781L6.00917 3.57816L6.01566 3.57159C6.03229 3.55476 6.0539 3.54374 6.07729 3.54016C6.10034 3.53664 6.1239 3.54054 6.14457 3.55127C6.14488 3.55143 6.14519 3.55159 6.1455 3.55175L9.14243 5.17011L9.38395 5.30053L9.62365 5.16677C10.345 4.76423 11.1089 4.44325 11.9013 4.20976L12.1602 4.13347L12.2385 3.87516L13.2377 0.577689C13.2378 0.577443 13.2379 0.577197 13.238 0.576952C13.245 0.554884 13.2587 0.535575 13.2773 0.521783C13.296 0.507973 13.3185 0.500407 13.3416 0.500153H16.72V0.500279L16.7312 0.500028C16.7545 0.499506 16.7773 0.506382 16.7964 0.51967C16.8139 0.531807 16.8274 0.548722 16.8355 0.568328L17.8314 3.86476L17.9092 4.12225L18.1669 4.19923C18.9527 4.43397 19.7101 4.75491 20.4253 5.15621L20.6642 5.2902L20.9057 5.16113L23.9545 3.53175C23.9546 3.53168 23.9548 3.53161 23.9549 3.53154C23.9757 3.5206 23.9995 3.51661 24.0227 3.52016C24.0461 3.52374 24.0677 3.53476 24.0843 3.55159L24.0857 3.55297L26.4757 5.95297L26.4757 5.95298L26.4786 5.95581C26.4954 5.97245 26.5064 5.99406 26.51 6.01745C26.5136 6.04076 26.5095 6.06461 26.4985 6.08546C26.4985 6.08553 26.4984 6.08559 26.4984 6.08565L24.859 9.15456L24.7324 9.39149L24.8601 9.62782C25.2428 10.3362 25.5476 11.0838 25.7693 11.8578ZM11.6966 19.989C12.6833 20.6483 13.8433 21.0002 15.03 21.0002C16.6213 21.0002 18.1474 20.368 19.2726 19.2428C20.3979 18.1176 21.03 16.5915 21.03 15.0002C21.03 13.8135 20.6781 12.6534 20.0188 11.6667C19.3595 10.68 18.4225 9.911 17.3261 9.45688C16.2297 9.00275 15.0233 8.88393 13.8595 9.11544C12.6956 9.34695 11.6265 9.9184 10.7874 10.7575C9.94824 11.5966 9.3768 12.6657 9.14529 13.8296C8.91378 14.9935 9.0326 16.1999 9.48672 17.2963C9.94085 18.3926 10.7099 19.3297 11.6966 19.989Z" fill="#FAFAFA" stroke="#979797"/>
</svg>
