<svg width="26" height="25" viewBox="0 0 26 25" fill="none" xmlns="http://www.w3.org/2000/svg">
<g clip-path="url(#clip0_1889_6055)">
<path d="M25.4215 12.4407L24.8317 8.71702C24.618 7.36791 23.9829 6.12102 23.0172 5.15501L20.3434 2.48167C19.38 1.51878 18.1373 0.884988 16.7931 0.672585L13.048 0.0793237C11.7047 -0.133567 10.3287 0.0846948 9.11632 0.702371L5.74132 2.42161C4.52633 3.04082 3.53854 4.02877 2.91955 5.24387L1.20568 8.60716C0.584967 9.8254 0.365841 11.2089 0.579703 12.5593L1.16955 16.2834C1.38316 17.6325 2.01831 18.8794 2.984 19.8454L5.65783 22.5188C6.62064 23.4814 7.86341 24.1147 9.20812 24.3279L12.9532 24.9206C14.2965 25.1335 15.6725 24.9153 16.8849 24.2981L20.2599 22.5788C21.4748 21.9595 22.4625 20.9716 23.0817 19.7566L24.7955 16.3938C25.4161 15.175 25.6354 13.7912 25.4215 12.4407ZM9.09484 17.9685C8.23205 17.9685 7.53234 17.2688 7.53234 16.406C7.53234 15.5432 8.23205 14.8435 9.09484 14.8435C9.95763 14.8435 10.6573 15.5432 10.6573 16.406C10.6573 17.2688 9.95763 17.9685 9.09484 17.9685ZM10.6573 10.156C9.79455 10.156 9.09484 9.45628 9.09484 8.59348C9.09484 7.73069 9.79455 7.03098 10.6573 7.03098C11.5201 7.03098 12.2198 7.73069 12.2198 8.59348C12.2198 9.45628 11.5201 10.156 10.6573 10.156ZM18.4698 16.406C17.607 16.406 16.9073 15.7063 16.9073 14.8435C16.9073 13.9807 17.607 13.281 18.4698 13.281C19.3326 13.281 20.0323 13.9807 20.0323 14.8435C20.0323 15.7063 19.3326 16.406 18.4698 16.406Z" fill="#F6F6F6"/>
</g>
<defs>
<clipPath id="clip0_1889_6055">
<rect width="25" height="25" fill="white" transform="translate(0.5)"/>
</clipPath>
</defs>
</svg>
