<svg width="18" height="20" viewBox="0 0 18 20" fill="none" xmlns="http://www.w3.org/2000/svg">
<path d="M5.625 2.8125C5.625 1.25918 7.13601 0 9 0C10.864 0 12.375 1.25918 12.375 2.8125C12.375 4.36578 10.864 5.625 9 5.625C7.13601 5.625 5.625 4.36578 5.625 2.8125ZM17.5607 2.86613C16.9749 2.37797 16.0251 2.37797 15.4394 2.86613L11.3787 6.25H6.62128L2.56063 2.86613C1.97488 2.37797 1.0251 2.37797 0.439348 2.86613C-0.146449 3.3543 -0.146449 4.14574 0.439348 4.63391L4.87499 8.33023V18.75C4.87499 19.4404 5.54657 20 6.375 20H7.125C7.95342 20 8.625 19.4404 8.625 18.75V14.375H9.375V18.75C9.375 19.4404 10.0466 20 10.875 20H11.625C12.4534 20 13.125 19.4404 13.125 18.75V8.33023L17.5607 4.63387C18.1464 4.1457 18.1464 3.3543 17.5607 2.86613Z" fill="#4C4A48"/>
</svg>
