<svg width="60" height="60" viewBox="0 0 60 60" fill="none" xmlns="http://www.w3.org/2000/svg">
<rect width="60" height="60" rx="30" fill="#64987F"/>
<path d="M34.4805 22.4971H31.125C30.8125 22.4971 30.5117 22.6143 30.2812 22.8252L26.4414 26.3408C26.4375 26.3447 26.4336 26.3525 26.4297 26.3564C25.7812 26.9658 25.793 27.9385 26.3477 28.5439C26.8438 29.0869 27.8867 29.2314 28.5391 28.6494C28.543 28.6455 28.5508 28.6455 28.5547 28.6416L31.6758 25.7822C31.9297 25.5518 32.3281 25.5674 32.5586 25.8213C32.793 26.0752 32.7734 26.4697 32.5195 26.7041L31.5 27.6377L37.1875 32.2549C37.3008 32.3486 37.4023 32.4502 37.4961 32.5557V24.9971L35.3633 22.8643C35.1328 22.6299 34.8125 22.4971 34.4805 22.4971ZM38.75 25.0049V33.751C38.75 34.4424 39.3086 35.001 40 35.001H42.5V25.0049H38.75ZM40.625 33.751C40.2812 33.751 40 33.4697 40 33.126C40 32.7822 40.2812 32.501 40.625 32.501C40.9688 32.501 41.25 32.7822 41.25 33.126C41.25 33.4697 40.9688 33.751 40.625 33.751ZM17.5 34.9971H20C20.6914 34.9971 21.25 34.4385 21.25 33.7471V25.0049H17.5V34.9971ZM19.375 32.501C19.7188 32.501 20 32.7822 20 33.126C20 33.4697 19.7188 33.751 19.375 33.751C19.0312 33.751 18.75 33.4697 18.75 33.126C18.75 32.7783 19.0312 32.501 19.375 32.501ZM36.4023 33.2275L30.5703 28.4932L29.3984 29.5674C28.2383 30.626 26.4609 30.5244 25.4258 29.3955C24.375 28.2471 24.457 26.4697 25.5977 25.4229L28.793 22.4971H25.5195C25.1875 22.4971 24.8711 22.6299 24.6367 22.8643L22.5 24.9971V33.7432H23.2148L26.75 36.9424C27.8203 37.8135 29.3945 37.6494 30.2656 36.5791L30.2734 36.5713L30.9727 37.1768C31.5938 37.6846 32.5117 37.5869 33.0156 36.9658L34.2422 35.458L34.4531 35.6299C34.9883 36.0635 35.7773 35.9854 36.2109 35.4463L36.582 34.9893C37.0195 34.4502 36.9375 33.665 36.4023 33.2275Z" fill="white"/>
</svg>
