<svg width="19" height="24" viewBox="0 0 19 24" fill="none" xmlns="http://www.w3.org/2000/svg">
<path d="M2.86043 22.6861L2.85982 22.6865C2.103 23.1441 1.53709 23.1076 1.18563 22.8829C0.818415 22.6481 0.5 22.0931 0.5 21.1285V4.5411C0.5 2.28272 2.20236 0.5 4.19854 0.5H14.7016C16.6978 0.5 18.4002 2.28272 18.4002 4.5411V21.1285C18.4002 22.0927 18.0821 22.6433 17.7144 22.8764C17.3602 23.1011 16.789 23.1367 16.0244 22.685C16.0238 22.6847 16.0233 22.6843 16.0227 22.684L10.722 19.4891C10.7217 19.489 10.7214 19.4888 10.7211 19.4886C10.3473 19.2621 9.88391 19.1647 9.44841 19.1647C9.01199 19.1647 8.54743 19.2624 8.16928 19.4864L8.16927 19.4864L8.16598 19.4884L2.86043 22.6861Z" fill="white" stroke="#AAAAAA"/>
</svg>
