<svg width="13" height="46" viewBox="0 0 13 46" fill="none" xmlns="http://www.w3.org/2000/svg">
<g clip-path="url(#clip0_1015_2908)">
<path d="M2.086 13.312H10.724V16.924H2.086V13.312ZM9.59 14.208H3.234V16.042H9.59V14.208ZM1.288 5.472H11.466V6.382H1.288V5.472ZM6.412 6.886C9.016 6.886 10.5 7.502 10.5 8.678C10.5 9.854 9.016 10.47 6.412 10.47C3.794 10.47 2.324 9.854 2.324 8.678C2.324 7.502 3.794 6.886 6.412 6.886ZM6.412 7.698C4.578 7.698 3.556 8.048 3.556 8.678C3.556 9.308 4.578 9.658 6.412 9.658C8.232 9.658 9.254 9.308 9.254 8.678C9.254 8.048 8.232 7.698 6.412 7.698ZM5.838 4.254H6.986V6.06H5.838V4.254ZM0.686 11.436H12.124V12.346H0.686V11.436ZM5.838 10.19H6.986V11.94H5.838V10.19Z" fill="#222222"/>
<rect width="13" height="6" transform="translate(0 40)" fill="#222222"/>
</g>
<defs>
<clipPath id="clip0_1015_2908">
<rect width="13" height="46" fill="white"/>
</clipPath>
</defs>
</svg>
