<svg width="57" height="46" viewBox="0 0 57 46" fill="none" xmlns="http://www.w3.org/2000/svg">
<g clip-path="url(#clip0_1015_2925)">
<path d="M4.242 4.898C6.132 4.898 7.518 6.046 7.518 7.712C7.518 9.364 6.132 10.512 4.242 10.512C2.366 10.512 0.98 9.364 0.98 7.712C0.98 6.046 2.366 4.898 4.242 4.898ZM4.242 5.85C3.024 5.85 2.1 6.62 2.1 7.712C2.1 8.804 3.024 9.56 4.242 9.56C5.474 9.56 6.384 8.804 6.384 7.712C6.384 6.62 5.474 5.85 4.242 5.85ZM9.898 4.436H11.074V10.918H9.898V4.436ZM2.884 11.534H11.074V14.614H4.046V16.518H2.912V13.746H9.926V12.472H2.884V11.534ZM2.912 16H11.494V16.924H2.912V16ZM16.6449 5.094H17.6109V6.382C17.6109 8.818 16.2389 10.834 14.1249 11.66L13.5089 10.722C15.4129 10.022 16.6449 8.314 16.6449 6.382V5.094ZM16.8549 5.094H17.8069V6.466C17.8069 8.174 19.0669 9.756 20.8869 10.386L20.2709 11.296C18.2409 10.54 16.8549 8.664 16.8549 6.466V5.094ZM22.2309 4.436H23.3929V12.108H22.2309V4.436ZM23.0709 7.698H25.2689V8.678H23.0709V7.698ZM19.3609 12.458C21.9509 12.458 23.5189 13.312 23.5189 14.768C23.5189 16.224 21.9509 17.064 19.3609 17.064C16.7709 17.064 15.2029 16.224 15.2029 14.768C15.2029 13.312 16.7709 12.458 19.3609 12.458ZM19.3609 13.382C17.4849 13.382 16.3369 13.886 16.3369 14.768C16.3369 15.65 17.4849 16.154 19.3609 16.154C21.2369 16.154 22.3849 15.65 22.3849 14.768C22.3849 13.886 21.2369 13.382 19.3609 13.382ZM25.9118 18.506L30.1118 4.884H31.0218L26.8358 18.506H25.9118ZM38.6882 7.712H41.5442V8.678H38.6882V7.712ZM41.1802 4.436H42.3422V11.982H41.1802V4.436ZM38.1842 12.36C40.7882 12.36 42.3982 13.242 42.3982 14.726C42.3982 16.224 40.7882 17.078 38.1842 17.078C35.5662 17.078 33.9562 16.224 33.9562 14.726C33.9562 13.242 35.5662 12.36 38.1842 12.36ZM38.1842 13.27C36.2802 13.27 35.1182 13.802 35.1182 14.726C35.1182 15.636 36.2802 16.168 38.1842 16.168C40.0882 16.168 41.2502 15.636 41.2502 14.726C41.2502 13.802 40.0882 13.27 38.1842 13.27ZM35.1602 5.71H36.1122V6.732C36.1122 9.07 34.6842 11.072 32.5842 11.856L31.9822 10.932C33.8582 10.246 35.1602 8.552 35.1602 6.732V5.71ZM35.3842 5.71H36.3222V6.732C36.3222 8.37 37.5542 9.938 39.3882 10.582L38.8002 11.506C36.7422 10.764 35.3842 8.86 35.3842 6.732V5.71ZM32.3322 5.36H39.0942V6.312H32.3322V5.36ZM44.8191 14.516H56.2851V15.482H44.8191V14.516ZM49.9431 11.492H51.1051V14.796H49.9431V11.492ZM46.1631 5.332H47.3111V7.586H53.7651V5.332H54.9131V11.8H46.1631V5.332ZM47.3111 8.524V10.848H53.7651V8.524H47.3111Z" fill="#222222"/>
<rect width="57" height="6" transform="translate(0 40)" fill="#222222"/>
</g>
<defs>
<clipPath id="clip0_1015_2925">
<rect width="57" height="46" fill="white"/>
</clipPath>
</defs>
</svg>
