<svg width="20" height="25" viewBox="0 0 20 25" fill="none" xmlns="http://www.w3.org/2000/svg">
<path d="M19.097 18.4808L15.1961 14.0624H16.6917C17.1316 14.0624 17.5208 13.8182 17.7063 13.4247C17.8919 13.0321 17.8308 12.5819 17.5462 12.2504L13.7312 7.81238H15.1419C15.5862 7.81238 15.9866 7.55115 16.1604 7.14783C16.3323 6.75085 16.2512 6.28894 15.9534 5.97205L10.5691 0.235718C10.2747 -0.0792236 9.72537 -0.0792236 9.43045 0.235718L4.04568 5.97205C3.74783 6.28894 3.66726 6.75085 3.83865 7.14783C4.01248 7.55115 4.41336 7.81238 4.85769 7.81238H6.26834L2.45291 12.2513C2.16922 12.5824 2.10818 13.0321 2.29324 13.4252C2.47879 13.8182 2.86746 14.0624 3.30789 14.0624H4.80349L0.902615 18.4808C0.609646 18.8124 0.54324 19.2665 0.728787 19.6654C0.911892 20.0585 1.31472 20.3124 1.75467 20.3124H8.43728V21.5062L6.95828 23.8695C6.69851 24.389 7.07644 25.0004 7.65701 25.0004H12.3426C12.9231 25.0004 13.3011 24.389 13.0413 23.8695L11.5623 21.5062V20.3124H18.2449C18.6848 20.3124 19.0877 20.0585 19.2708 19.6654C19.4563 19.2665 19.3899 18.8124 19.097 18.4808Z" fill="#F6F6F6"/>
</svg>
