<svg width="52" height="46" viewBox="0 0 52 46" fill="none" xmlns="http://www.w3.org/2000/svg">
<g clip-path="url(#clip0_1015_2922)">
<path d="M3.85 6.508H4.802V7.054C4.802 9.224 3.374 10.988 1.26 11.674L0.7 10.764C2.576 10.19 3.85 8.72 3.85 7.054V6.508ZM4.06 6.508H5.012V7.054C5.012 8.594 6.244 9.98 8.106 10.526L7.56 11.45C5.446 10.792 4.06 9.084 4.06 7.054V6.508ZM1.05 5.92H7.798V6.858H1.05V5.92ZM3.85 4.38H5.012V6.298H3.85V4.38ZM9.352 4.436H10.514V11.926H9.352V4.436ZM10.192 7.628H12.39V8.608H10.192V7.628ZM2.562 12.514H10.514V16.924H2.562V12.514ZM9.38 13.438H3.696V15.986H9.38V13.438ZM19.2769 7.25H23.0989V8.216H19.2769V7.25ZM19.2769 11.254H23.0989V12.22H19.2769V11.254ZM16.9529 5.402C18.7869 5.402 20.1029 7.124 20.1029 9.812C20.1029 12.514 18.7869 14.236 16.9529 14.236C15.1049 14.236 13.8029 12.514 13.8029 9.812C13.8029 7.124 15.1049 5.402 16.9529 5.402ZM16.9529 6.452C15.7349 6.452 14.8949 7.768 14.8949 9.812C14.8949 11.87 15.7349 13.214 16.9529 13.214C18.1709 13.214 19.0109 11.87 19.0109 9.812C19.0109 7.768 18.1709 6.452 16.9529 6.452ZM22.8469 4.422H23.9949V17.106H22.8469V4.422ZM26.4298 6.592H32.7018V7.544H26.4298V6.592ZM29.5658 8.384C31.1478 8.384 32.2958 9.574 32.2958 11.282C32.2958 12.976 31.1478 14.166 29.5658 14.166C27.9978 14.166 26.8498 12.976 26.8498 11.282C26.8498 9.574 27.9978 8.384 29.5658 8.384ZM29.5658 9.378C28.5998 9.378 27.8998 10.162 27.8998 11.282C27.8998 12.402 28.5998 13.186 29.5658 13.186C30.5458 13.186 31.2598 12.402 31.2598 11.282C31.2598 10.162 30.5458 9.378 29.5658 9.378ZM36.0478 4.436H37.1678V17.092H36.0478V4.436ZM34.0318 9.756H36.4258V10.722H34.0318V9.756ZM33.3458 4.716H34.4378V16.476H33.3458V4.716ZM29.0058 4.8H30.1538V7.18H29.0058V4.8ZM39.3227 10.778H50.7607V11.716H39.3227V10.778ZM44.4747 9.014H45.6227V11.086H44.4747V9.014ZM45.0347 12.654C47.7507 12.654 49.3607 13.452 49.3607 14.866C49.3607 16.28 47.7507 17.064 45.0347 17.064C42.3327 17.064 40.7087 16.28 40.7087 14.866C40.7087 13.452 42.3327 12.654 45.0347 12.654ZM45.0347 13.55C43.0467 13.55 41.8847 14.026 41.8847 14.866C41.8847 15.706 43.0467 16.182 45.0347 16.182C47.0227 16.182 48.1847 15.706 48.1847 14.866C48.1847 14.026 47.0227 13.55 45.0347 13.55ZM40.8487 4.758H41.9967V6.158H48.1147V4.758H49.2767V9.434H40.8487V4.758ZM41.9967 7.068V8.496H48.1147V7.068H41.9967Z" fill="#222222"/>
<rect width="52" height="6" transform="translate(0 40)" fill="#222222"/>
</g>
<defs>
<clipPath id="clip0_1015_2922">
<rect width="52" height="46" fill="white"/>
</clipPath>
</defs>
</svg>
