<svg width="20" height="13" viewBox="0 0 20 13" fill="none" xmlns="http://www.w3.org/2000/svg">
<path d="M13.5844 0H10.9C10.65 0 10.4094 0.101526 10.225 0.284272L7.15313 3.33004C7.15 3.33343 7.14688 3.34019 7.14375 3.34358C6.625 3.87151 6.63438 4.71418 7.07813 5.23872C7.475 5.70913 8.30938 5.83434 8.83125 5.3301C8.83438 5.32671 8.84063 5.32671 8.84375 5.32333L11.3406 2.8461C11.5438 2.64644 11.8625 2.65997 12.0469 2.87995C12.2344 3.09992 12.2188 3.44172 12.0156 3.64477L11.2 4.45359L15.75 8.4537C15.8406 8.53493 15.9219 8.62291 15.9969 8.71429V2.16588L14.2906 0.318114C14.1063 0.115062 13.85 0 13.5844 0ZM17 2.17265V9.74985C17 10.3489 17.4469 10.8328 18 10.8328H20V2.17265H17ZM18.5 9.74985C18.225 9.74985 18 9.50619 18 9.20838C18 8.91057 18.225 8.66691 18.5 8.66691C18.775 8.66691 19 8.91057 19 9.20838C19 9.50619 18.775 9.74985 18.5 9.74985ZM0 10.8294H2C2.55313 10.8294 3 10.3455 3 9.74646V2.17265H0V10.8294ZM1.5 8.66691C1.775 8.66691 2 8.91057 2 9.20838C2 9.50619 1.775 9.74985 1.5 9.74985C1.225 9.74985 1 9.50619 1 9.20838C1 8.90719 1.225 8.66691 1.5 8.66691ZM15.1219 9.29637L10.4563 5.19473L9.51875 6.12538C8.59063 7.0425 7.16875 6.95451 6.34063 5.97648C5.5 4.98153 5.56563 3.44172 6.47813 2.53476L9.03438 0H6.41563C6.15 0 5.89688 0.115062 5.70938 0.318114L4 2.16588V9.74308H4.57188L7.4 12.5147C8.25625 13.2694 9.51563 13.1273 10.2125 12.2L10.2188 12.1932L10.7781 12.7178C11.275 13.1577 12.0094 13.0731 12.4125 12.535L13.3938 11.2287L13.5625 11.3776C13.9906 11.7533 14.6219 11.6856 14.9688 11.2186L15.2656 10.8226C15.6156 10.3556 15.55 9.6754 15.1219 9.29637Z" fill="#4C4A48"/>
</svg>
