<svg width="26" height="21" viewBox="0 0 26 21" fill="none" xmlns="http://www.w3.org/2000/svg">
<path d="M24.875 14.25H24.25V10.0273C24.25 9.53125 24.0508 9.05469 23.6992 8.70312L19.7969 4.80078C19.4453 4.44922 18.9688 4.25 18.4727 4.25H16.75V2.375C16.75 1.33984 15.9102 0.5 14.875 0.5H2.375C1.33984 0.5 0.5 1.33984 0.5 2.375V14.875C0.5 15.9102 1.33984 16.75 2.375 16.75H3C3 18.8203 4.67969 20.5 6.75 20.5C8.82031 20.5 10.5 18.8203 10.5 16.75H15.5C15.5 18.8203 17.1797 20.5 19.25 20.5C21.3203 20.5 23 18.8203 23 16.75H24.875C25.2188 16.75 25.5 16.4688 25.5 16.125V14.875C25.5 14.5312 25.2188 14.25 24.875 14.25ZM6.75 18.625C5.71484 18.625 4.875 17.7852 4.875 16.75C4.875 15.7148 5.71484 14.875 6.75 14.875C7.78516 14.875 8.625 15.7148 8.625 16.75C8.625 17.7852 7.78516 18.625 6.75 18.625ZM12.375 8.9375C12.375 9.10938 12.2344 9.25 12.0625 9.25H9.875V11.4375C9.875 11.6094 9.73438 11.75 9.5625 11.75H7.6875C7.51562 11.75 7.375 11.6094 7.375 11.4375V9.25H5.1875C5.01562 9.25 4.875 9.10938 4.875 8.9375V7.0625C4.875 6.89062 5.01562 6.75 5.1875 6.75H7.375V4.5625C7.375 4.39062 7.51562 4.25 7.6875 4.25H9.5625C9.73438 4.25 9.875 4.39062 9.875 4.5625V6.75H12.0625C12.2344 6.75 12.375 6.89062 12.375 7.0625V8.9375ZM19.25 18.625C18.2148 18.625 17.375 17.7852 17.375 16.75C17.375 15.7148 18.2148 14.875 19.25 14.875C20.2852 14.875 21.125 15.7148 21.125 16.75C21.125 17.7852 20.2852 18.625 19.25 18.625ZM22.375 10.5H16.75V6.125H18.4727L22.375 10.0273V10.5Z" fill="#F6F6F6"/>
</svg>
