<svg width="20" height="15" viewBox="0 0 20 15" fill="none" xmlns="http://www.w3.org/2000/svg">
<path d="M19.5 10.3125H19V7.14551C19 6.77344 18.8406 6.41602 18.5594 6.15234L15.4375 3.22559C15.1562 2.96191 14.775 2.8125 14.3781 2.8125H13V1.40625C13 0.629883 12.3281 0 11.5 0H1.5C0.671875 0 0 0.629883 0 1.40625V10.7812C0 11.5576 0.671875 12.1875 1.5 12.1875H2C2 13.7402 3.34375 15 5 15C6.65625 15 8 13.7402 8 12.1875H12C12 13.7402 13.3438 15 15 15C16.6562 15 18 13.7402 18 12.1875H19.5C19.775 12.1875 20 11.9766 20 11.7188V10.7812C20 10.5234 19.775 10.3125 19.5 10.3125ZM5 13.5938C4.17188 13.5938 3.5 12.9639 3.5 12.1875C3.5 11.4111 4.17188 10.7812 5 10.7812C5.82812 10.7812 6.5 11.4111 6.5 12.1875C6.5 12.9639 5.82812 13.5938 5 13.5938ZM9.5 6.32812C9.5 6.45703 9.3875 6.5625 9.25 6.5625H7.5V8.20312C7.5 8.33203 7.3875 8.4375 7.25 8.4375H5.75C5.6125 8.4375 5.5 8.33203 5.5 8.20312V6.5625H3.75C3.6125 6.5625 3.5 6.45703 3.5 6.32812V4.92188C3.5 4.79297 3.6125 4.6875 3.75 4.6875H5.5V3.04688C5.5 2.91797 5.6125 2.8125 5.75 2.8125H7.25C7.3875 2.8125 7.5 2.91797 7.5 3.04688V4.6875H9.25C9.3875 4.6875 9.5 4.79297 9.5 4.92188V6.32812ZM15 13.5938C14.1719 13.5938 13.5 12.9639 13.5 12.1875C13.5 11.4111 14.1719 10.7812 15 10.7812C15.8281 10.7812 16.5 11.4111 16.5 12.1875C16.5 12.9639 15.8281 13.5938 15 13.5938ZM17.5 7.5H13V4.21875H14.3781L17.5 7.14551V7.5Z" fill="#4C4A48"/>
</svg>
