<svg width="34" height="34" viewBox="0 0 34 34" fill="none" xmlns="http://www.w3.org/2000/svg">
<path d="M17 4.25C15.8312 4.25 14.875 5.20625 14.875 6.375C14.875 7.54375 15.8312 8.5 17 8.5C18.1687 8.5 19.125 7.54375 19.125 6.375C19.125 5.20625 18.1687 4.25 17 4.25ZM17 25.5C15.8312 25.5 14.875 26.4562 14.875 27.625C14.875 28.7937 15.8312 29.75 17 29.75C18.1687 29.75 19.125 28.7937 19.125 27.625C19.125 26.4562 18.1687 25.5 17 25.5ZM17 14.875C15.8312 14.875 14.875 15.8312 14.875 17C14.875 18.1687 15.8312 19.125 17 19.125C18.1687 19.125 19.125 18.1687 19.125 17C19.125 15.8312 18.1687 14.875 17 14.875Z" fill="white"/>
</svg>
