<svg width="52" height="46" viewBox="0 0 52 46" fill="none" xmlns="http://www.w3.org/2000/svg">
<g clip-path="url(#clip0_1015_2928)">
<path d="M0.686 10.778H12.124V11.716H0.686V10.778ZM5.838 9.014H6.986V11.086H5.838V9.014ZM6.398 12.654C9.114 12.654 10.724 13.452 10.724 14.866C10.724 16.28 9.114 17.064 6.398 17.064C3.696 17.064 2.072 16.28 2.072 14.866C2.072 13.452 3.696 12.654 6.398 12.654ZM6.398 13.55C4.41 13.55 3.248 14.026 3.248 14.866C3.248 15.706 4.41 16.182 6.398 16.182C8.386 16.182 9.548 15.706 9.548 14.866C9.548 14.026 8.386 13.55 6.398 13.55ZM2.212 4.758H3.36V6.158H9.478V4.758H10.64V9.434H2.212V4.758ZM3.36 7.068V8.496H9.478V7.068H3.36ZM16.6729 5.528H17.6249V7.796C17.6249 10.596 16.1129 13.326 14.1109 14.39L13.3969 13.466C15.2309 12.542 16.6729 10.106 16.6729 7.796V5.528ZM16.8829 5.528H17.8209V7.796C17.8209 10.022 19.2349 12.332 21.0269 13.228L20.3129 14.152C18.3529 13.102 16.8829 10.512 16.8829 7.796V5.528ZM22.1329 4.436H23.3089V17.092H22.1329V4.436ZM23.0289 9.56H25.3809V10.54H23.0289V9.56ZM27.0458 5.878H37.2238V6.816H27.0458V5.878ZM26.4578 12.64H37.9238V13.592H26.4578V12.64ZM31.5818 13.41H32.7438V17.106H31.5818V13.41ZM32.1698 7.544C34.7458 7.544 36.2718 8.3 36.2718 9.658C36.2718 11.002 34.7458 11.772 32.1698 11.772C29.5798 11.772 28.0538 11.002 28.0538 9.658C28.0538 8.3 29.5798 7.544 32.1698 7.544ZM32.1698 8.44C30.3218 8.44 29.2578 8.874 29.2578 9.658C29.2578 10.442 30.3218 10.876 32.1698 10.876C34.0178 10.876 35.0818 10.442 35.0818 9.658C35.0818 8.874 34.0178 8.44 32.1698 8.44ZM31.5818 4.366H32.7438V6.508H31.5818V4.366ZM48.5487 4.436H49.7107V17.092H48.5487V4.436ZM44.8387 5.794H45.9867C45.9867 9.462 44.3347 12.668 40.1067 14.74L39.4907 13.802C43.1447 12.038 44.8387 9.35 44.8387 5.99V5.794ZM40.0647 5.794H45.3427V6.746H40.0647V5.794Z" fill="#222222"/>
<rect width="52" height="6" transform="translate(0 40)" fill="#222222"/>
</g>
<defs>
<clipPath id="clip0_1015_2928">
<rect width="52" height="46" fill="white"/>
</clipPath>
</defs>
</svg>
