<svg width="24" height="25" viewBox="0 0 24 25" fill="none" xmlns="http://www.w3.org/2000/svg">
<path d="M18.2422 17.1729C18.3643 17.0508 23.3789 12.6611 23.3789 12.6611L22.5244 12.2949C22.0361 12.0557 22.1631 11.7334 22.2803 11.4453C22.3975 11.0742 23.2617 8.15918 23.2617 8.15918C23.2617 8.15918 20.9326 8.64746 20.4443 8.76953C20.0781 8.88672 19.9561 8.64746 19.834 8.40332C19.7119 8.15918 19.1016 6.82129 19.1016 6.82129C19.1016 6.82129 16.5332 9.74609 16.4111 9.86328C15.9229 10.2295 15.4297 9.86328 15.5518 9.375C15.5518 8.88672 16.8994 3.04688 16.8994 3.04688C16.8994 3.04688 15.4297 3.89648 14.9414 4.14063C14.5752 4.38477 14.3262 4.38477 14.082 3.89648C13.833 3.53027 11.9971 0 11.9971 0C11.9971 0 10.166 3.53027 9.92187 3.89648C9.67773 4.38477 9.43359 4.38477 9.0625 4.14063C8.57422 3.89648 7.10449 3.04688 7.10449 3.04688C7.10449 3.04688 8.45215 8.88672 8.45215 9.375C8.57422 9.86328 8.08594 10.2295 7.59277 9.86328C7.4707 9.74121 4.90234 6.82129 4.90234 6.82129C4.90234 6.82129 4.29199 8.1543 4.16992 8.39844C4.04785 8.64258 3.92578 8.88184 3.55957 8.76465C3.06641 8.64258 0.742187 8.1543 0.742187 8.1543C0.742187 8.1543 1.60156 11.0693 1.72363 11.4404C1.84082 11.7334 1.96777 12.0508 1.47949 12.29L0.625 12.6611C0.625 12.6611 5.63477 17.0508 5.76172 17.1729C6.01074 17.417 6.25 17.5391 6.01074 18.2715C5.76172 19.0039 5.51758 19.9854 5.51758 19.9854C5.51758 19.9854 10.166 19.0039 10.6592 18.8818C11.084 18.8379 11.5527 19.0039 11.5527 19.4922C11.5527 19.9805 11.2695 25 11.2695 25H12.7344C12.7344 25 12.4512 19.9854 12.4512 19.4922C12.4512 18.999 12.915 18.8379 13.3496 18.8818C13.8379 19.0039 18.4863 19.9854 18.4863 19.9854C18.4863 19.9854 18.2422 19.0039 17.998 18.2715C17.7539 17.5391 17.998 17.417 18.2422 17.1729Z" fill="#F6F6F6"/>
</svg>
