<svg width="19" height="17" viewBox="0 0 19 17" fill="none" xmlns="http://www.w3.org/2000/svg">
<path d="M19 5.49088C19 11.6903 10.1964 16.7082 9.82147 16.9154C9.72266 16.9709 9.6122 17 9.5 17C9.38779 17 9.27734 16.9709 9.17853 16.9154C8.80362 16.7082 0 11.6903 0 5.49088C0.00157152 4.03511 0.55614 2.63944 1.54204 1.61005C2.52794 0.580669 3.86466 0.00164083 5.25893 0C7.01049 0 8.54406 0.786435 9.5 2.11576C10.4559 0.786435 11.9895 0 13.7411 0C15.1353 0.00164083 16.4721 0.580669 17.458 1.61005C18.4439 2.63944 18.9984 4.03511 19 5.49088Z" fill="#9B9B9B"/>
</svg>
