<svg width="24" height="35" viewBox="0 0 24 35" fill="none" xmlns="http://www.w3.org/2000/svg">
<path d="M20.2978 14.7246C21.0868 12.4961 23.3594 6.0498 23.3594 3.98535C23.3594 2.16699 22.3006 0.642578 20.4125 0.642578C17.4049 0.642578 14.7075 9.64551 13.8646 11.792C13.2105 9.84375 10.1489 0 7.45154 0C5.35432 0 4.36977 1.56543 4.36977 3.53418C4.36977 5.94727 6.67604 12.2021 7.51223 14.6084C7.08739 14.4512 6.62883 14.3145 6.16353 14.3145C4.58556 14.3145 2.90644 16.3037 2.90644 17.9102C2.90644 18.5186 3.23687 19.373 3.44592 19.9404C0.957579 20.624 7.38442e-06 22.3057 7.38442e-06 24.8418C-0.00673608 29.7773 4.60579 35 11.093 35C19.0503 35 24 28.9434 24 21.1299C24 18.1836 23.5347 15.5244 20.2978 14.7246ZM17.9107 7.38281C18.1804 6.54199 19.3335 2.9873 20.4125 2.9873C20.9924 2.9873 21.1475 3.5957 21.1475 4.08105C21.1475 5.38672 18.5445 12.5986 17.9713 14.1982L15.6786 13.7881L17.9107 7.38281ZM6.48722 3.30176C6.48722 2.48828 7.46502 0.177734 9.60945 6.52148L11.9427 13.3779C10.8907 13.2891 10.0747 13.1729 9.5555 13.4736C8.82046 11.5049 6.48722 5.29102 6.48722 3.30176ZM6.33212 16.6797C8.30796 16.6797 10.857 23.1465 10.857 24.0215C10.857 24.3701 10.5266 24.8008 10.1422 24.8008C8.7328 24.8008 4.95645 19.5439 4.95645 18.1221C4.9632 17.5957 5.81287 16.6797 6.33212 16.6797ZM18.7603 29.415C16.798 31.6025 14.2894 32.7373 11.3627 32.7373C7.35713 32.7373 4.19444 30.5088 2.67042 26.7012C1.51729 23.7344 2.92667 22.0322 4.05957 22.0322C4.82833 22.0322 7.72128 26.1543 7.72128 27.0293C7.72128 27.3643 7.20203 27.5967 6.93229 27.5967C5.84659 27.5967 5.42175 26.5371 3.48638 24.083C1.48357 26.1133 4.86879 30.0234 7.41782 30.0234C9.17786 30.0234 10.3243 28.3691 9.98034 27.1523C10.2298 27.1523 10.54 27.1729 10.7693 27.1113C10.8435 28.9639 11.383 31.1719 13.5813 31.3291C13.5813 31.2676 13.7162 30.8438 13.7162 30.8232C13.7162 29.6338 13.0014 28.5947 13.0014 27.3848C13.0014 25.4502 14.4647 23.5771 15.9483 22.4834C16.4878 22.0732 17.1419 21.8203 17.7758 21.5879C18.4299 21.335 19.1245 21.041 19.6235 20.5352C19.5493 19.7695 19.2391 19.0928 18.4838 19.0928C16.6159 19.0928 10.3512 19.3662 10.3512 16.3789C10.3512 15.9209 10.358 15.4834 11.5246 15.4834C13.7027 15.4834 19.2324 16.0303 20.8508 17.4727C22.0714 18.5732 22.4895 25.2109 18.7603 29.415ZM12.1113 20.8018C12.7654 21.0137 13.4397 21.0752 14.1141 21.2119C13.6151 21.5811 13.17 22.0322 12.7452 22.5176C12.5563 21.9365 12.3271 21.3691 12.1113 20.8018Z" fill="white"/>
</svg>
