<svg width="18" height="18" viewBox="0 0 18 18" fill="none" xmlns="http://www.w3.org/2000/svg">
<path d="M16.6039 6.58519L14.2464 5.66305C13.5686 5.39785 13.0672 4.82247 12.9055 4.12413L12.3434 1.69521C11.9363 -0.0634904 9.65147 -0.600303 8.47691 0.786329L6.85481 2.70174C6.38864 3.25261 5.67567 3.54272 4.94935 3.47762L2.42233 3.25181C0.592463 3.08827 -0.63378 5.05511 0.347073 6.57997L1.70199 8.68623C2.09152 9.29175 2.15269 10.0467 1.86511 10.7049L0.865625 12.9944C0.141762 14.6518 1.66859 16.4045 3.44924 15.9601L5.90876 15.3462C6.61575 15.1698 7.36598 15.3462 7.91512 15.8175L9.82479 17.4581C11.2071 18.6458 13.377 17.7622 13.4968 15.9625L13.6621 13.477C13.7095 12.7622 14.1121 12.1165 14.7389 11.7496L16.9186 10.4743C18.4964 9.55172 18.3104 7.25299 16.6039 6.58519Z" fill="#4C4A48"/>
</svg>
