<svg width="26" height="21" viewBox="0 0 26 21" fill="none" xmlns="http://www.w3.org/2000/svg">
<path d="M21.75 1.75H21.1109C20.5406 0.995312 19.6441 0.5 18.625 0.5C16.8992 0.5 15.5 1.89922 15.5 3.625V4.44453L0.972266 15.8738C0.825664 15.9837 0.706667 16.1263 0.624696 16.2902C0.542726 16.454 0.500033 16.6347 0.5 16.818C0.5 17.6953 1.42344 18.266 2.2082 17.8738L6.95586 15.5H10.725L12.4598 20.1914C12.5484 20.4348 12.8172 20.5602 13.0605 20.4715L13.9414 20.1508C14.1848 20.0621 14.3102 19.7934 14.2215 19.55L12.7242 15.5H14.25C14.3246 15.5 14.3969 15.491 14.4711 15.4887L16.2098 20.191C16.2984 20.4344 16.5672 20.5598 16.8105 20.4711L17.6914 20.1504C17.9348 20.0617 18.0602 19.793 17.9715 19.5496L16.3605 15.193C19.4742 14.2812 21.75 11.4086 21.75 8V4.875L25.5 4.25C25.5 2.86914 23.8211 1.75 21.75 1.75ZM18.625 4.5625C18.1074 4.5625 17.6875 4.14258 17.6875 3.625C17.6875 3.10703 18.1074 2.6875 18.625 2.6875C19.1426 2.6875 19.5625 3.10703 19.5625 3.625C19.5625 4.14258 19.1426 4.5625 18.625 4.5625Z" fill="#F6F6F6"/>
</svg>
