<svg width="25" height="25" viewBox="0 0 25 25" fill="none" xmlns="http://www.w3.org/2000/svg">
<path d="M8.98436 3.51562C8.98436 1.57397 10.5583 0 12.5 0C14.4416 0 16.0156 1.57397 16.0156 3.51562C16.0156 5.45723 14.4416 7.03125 12.5 7.03125C10.5583 7.03125 8.98436 5.45723 8.98436 3.51562ZM21.4173 3.58267C20.8072 2.97246 19.8178 2.97246 19.2077 3.58267L14.9778 7.8125H10.0222L5.79232 3.58267C5.18217 2.97246 4.19281 2.97246 3.58265 3.58267C2.97245 4.19287 2.97245 5.18218 3.58265 5.79238L8.20311 10.4128V23.4375C8.20311 24.3004 8.90267 25 9.76561 25H10.5469C11.4098 25 12.1094 24.3004 12.1094 23.4375V17.9688H12.8906V23.4375C12.8906 24.3004 13.5902 25 14.4531 25H15.2344C16.0973 25 16.7969 24.3004 16.7969 23.4375V10.4128L21.4173 5.79233C22.0275 5.18213 22.0275 4.19287 21.4173 3.58267Z" fill="#F6F6F6"/>
</svg>
