<svg width="18" height="17" viewBox="0 0 18 17" fill="none" xmlns="http://www.w3.org/2000/svg">
<path d="M18 7.96875C18 7.18416 17.5953 6.50648 17 6.13859V1.06283C17 0.772305 16.7819 0 16 0C15.7775 0 15.5566 0.0790234 15.3756 0.233086L12.7184 2.49189C11.3837 3.62545 9.70813 4.25 8 4.25H2C0.895313 4.25 0 5.20127 0 6.375V9.5625C0 10.7362 0.895313 11.6875 2 11.6875H3.05312C3.00969 12.0355 2.985 12.3894 2.985 12.75C2.985 14.0705 3.27437 15.3183 3.78375 16.4336C3.94594 16.7885 4.3 17 4.67125 17H6.9925C7.80656 17 8.29531 16.0092 7.80188 15.3212C7.28938 14.6067 6.98469 13.7155 6.98469 12.75C6.98469 12.3811 7.03531 12.0265 7.1225 11.6875H8C9.70813 11.6875 11.3838 12.3121 12.7181 13.4456L15.3753 15.7044C15.5525 15.8551 15.7727 15.9373 15.9997 15.9375C16.7784 15.9375 16.9997 15.1811 16.9997 14.875V9.79924C17.5953 9.43102 18 8.75334 18 7.96875ZM15 12.6643L13.9672 11.7864C12.2797 10.3521 10.16 9.5625 8 9.5625V6.375C10.16 6.375 12.2797 5.58543 13.9672 4.15105L15 3.27316V12.6643Z" fill="#4C4A48"/>
</svg>
