<svg width="26" height="23" viewBox="0 0 26 23" fill="none" xmlns="http://www.w3.org/2000/svg">
<path d="M25.5 10.8053C25.5 9.77973 24.9379 8.89388 24.1111 8.41298V1.77799C24.1111 1.39822 23.8082 0.388672 22.7222 0.388672C22.4132 0.388672 22.1063 0.49197 21.855 0.693359L18.1645 3.64605C16.3108 5.12782 13.9835 5.94423 11.6111 5.94423H3.27778C1.74349 5.94423 0.5 7.18772 0.5 8.722V12.8887C0.5 14.423 1.74349 15.6664 3.27778 15.6664H4.74045C4.68012 16.1213 4.64583 16.584 4.64583 17.0553C4.64583 18.7815 5.04774 20.4125 5.75521 21.8704C5.98047 22.3344 6.47222 22.6109 6.98785 22.6109H10.2118C11.3424 22.6109 12.0213 21.3158 11.3359 20.4164C10.6241 19.4824 10.201 18.3175 10.201 17.0553C10.201 16.5731 10.2713 16.1096 10.3924 15.6664H11.6111C13.9835 15.6664 16.3108 16.4829 18.1641 17.9646L21.8546 20.9173C22.1007 21.1143 22.4065 21.2217 22.7218 21.222C23.8034 21.222 24.1107 20.2333 24.1107 19.8331V13.1981C24.9379 12.7168 25.5 11.8309 25.5 10.8053ZM21.3333 16.9434L19.8989 15.7958C17.5551 13.9208 14.6111 12.8887 11.6111 12.8887V8.722C14.6111 8.722 17.5551 7.68989 19.8989 5.81489L21.3333 4.66732V16.9434Z" fill="#F6F6F6"/>
</svg>
