<svg width="179" height="179" viewBox="0 0 179 179" fill="none" xmlns="http://www.w3.org/2000/svg">
<path d="M117.369 178.992H116.239C77.6201 178.992 59.0067 163.77 55.7885 129.675C55.4406 126.109 58.05 122.891 61.7031 122.543C65.1822 122.195 68.4874 124.891 68.8353 128.457C71.3577 155.768 84.2305 165.945 116.326 165.945H117.456C152.857 165.945 165.381 153.42 165.381 118.02V61.3096C165.381 25.9093 152.857 13.3844 117.456 13.3844H116.326C84.0565 13.3844 71.1837 23.7349 68.8353 51.568C68.4004 55.1341 65.3562 57.8304 61.7031 57.4825C58.05 57.2216 55.4406 54.0034 55.7016 50.4373C58.6588 15.8198 77.3592 0.337646 116.239 0.337646H117.369C160.076 0.337646 178.341 18.6031 178.341 61.3096V118.02C178.341 160.726 160.076 178.992 117.369 178.992Z" fill="#292D32"/>
<path d="M115.29 96.1881H16.3085C12.7424 96.1881 9.78516 93.2309 9.78516 89.6647C9.78516 86.0986 12.7424 83.1414 16.3085 83.1414H115.29C118.856 83.1414 121.813 86.0986 121.813 89.6647C121.813 93.2309 118.856 96.1881 115.29 96.1881Z" fill="#292D32"/>
<path d="M35.7058 125.327C34.0533 125.327 32.4007 124.718 31.096 123.413L1.95819 94.2755C-0.564188 91.7531 -0.564188 87.5782 1.95819 85.0558L31.096 55.9179C33.6184 53.3955 37.7933 53.3955 40.3157 55.9179C42.8381 58.4403 42.8381 62.6153 40.3157 65.1376L15.7878 89.6657L40.3157 114.194C42.8381 116.716 42.8381 120.891 40.3157 123.413C39.098 124.718 37.3584 125.327 35.7058 125.327Z" fill="#292D32"/>
</svg>
