<svg width="70" height="70" viewBox="0 0 70 70" fill="none" xmlns="http://www.w3.org/2000/svg">
<rect width="70" height="70" rx="35" fill="#FFF066"/>
<path d="M34.9558 49.0473C38.9422 49.0473 42.9285 48.4345 46.7095 47.209C48.1466 46.7287 49.2416 45.7516 49.7206 44.4764C50.2168 43.2011 50.0457 41.7934 49.2587 40.5347L47.2912 37.3715C46.8806 36.7091 46.5042 35.3842 46.5042 34.6058V29.8196C46.5042 23.6587 41.3203 18.6406 34.9558 18.6406C28.5914 18.6406 23.4075 23.6587 23.4075 29.8196V34.6058C23.4075 35.3676 23.0311 36.7091 22.6205 37.3881L20.6701 40.5347C19.9345 41.7272 19.7976 43.168 20.2937 44.4764C20.7899 45.7847 21.8677 46.7784 23.2193 47.209C26.9832 48.4345 30.9695 49.0473 34.9558 49.0473ZM34.9558 21.1248C39.9003 21.1248 43.9379 25.0168 43.9379 29.8196V34.6058C43.9379 35.8148 44.4512 37.6034 45.0842 38.6467L47.0517 41.81C47.4281 42.4227 47.5307 43.0686 47.3083 43.6152C47.103 44.1783 46.5897 44.6089 45.8883 44.8407C38.7369 47.1593 31.1577 47.1593 24.0063 44.8407C23.3904 44.642 22.9114 44.1948 22.689 43.5986C22.4665 43.0024 22.5179 42.3565 22.86 41.81L24.8275 38.6467C25.4777 37.5703 25.9738 35.7982 25.9738 34.5892V29.8196C25.9738 25.0168 29.9943 21.1248 34.9558 21.1248Z" fill="white"/>
<path d="M31.773 21.5709C31.8928 21.5709 32.0125 21.5544 32.1323 21.5213C32.6284 21.3888 33.1075 21.2894 33.5694 21.2232C35.0236 21.041 36.4265 21.1403 37.7439 21.5213C38.223 21.6703 38.7362 21.5213 39.0612 21.1735C39.3863 20.8257 39.4889 20.3288 39.3007 19.8817C38.5993 18.1427 36.8885 17 34.9381 17C32.9877 17 31.2769 18.1262 30.5754 19.8817C30.4043 20.3288 30.4899 20.8257 30.8149 21.1735C31.0716 21.4385 31.4308 21.5709 31.773 21.5709Z" fill="white"/>
<path d="M34.9554 52.8238C36.6492 52.8238 38.2916 52.1613 39.4891 51.002C40.6868 49.8428 41.3711 48.2529 41.3711 46.6133H38.8048C38.8048 47.5904 38.3942 48.551 37.6757 49.2465C36.9571 49.9421 35.9648 50.3396 34.9554 50.3396C32.8339 50.3396 31.106 48.6669 31.106 46.6133H28.5397C28.5397 50.0415 31.4139 52.8238 34.9554 52.8238Z" fill="white"/>
</svg>
