<svg width="70" height="70" viewBox="0 0 70 70" fill="none" xmlns="http://www.w3.org/2000/svg">
<rect width="70" height="70" rx="35" fill="#ECECF7"/>
<path d="M36.3353 25.8184H24.6651C22.1 25.8184 20 27.9184 20 30.4834V47.5238C20 49.6989 21.56 50.6289 23.4651 49.5639L29.3602 46.2788C29.9902 45.9338 31.0102 45.9338 31.6252 46.2788L37.5204 49.5639C39.4254 50.6289 40.9854 49.6989 40.9854 47.5238V30.4834C41.0004 27.9184 38.9004 25.8184 36.3353 25.8184Z" stroke="#292D32" stroke-width="2" stroke-linecap="round" stroke-linejoin="round"/>
<path d="M41.0004 30.4834V47.5238C41.0004 49.6989 39.4404 50.6139 37.5354 49.5639L31.6403 46.2788C31.0102 45.9338 29.9902 45.9338 29.3602 46.2788L23.4651 49.5639C21.56 50.6139 20 49.6989 20 47.5238V30.4834C20 27.9184 22.1 25.8184 24.6651 25.8184H36.3353C38.9004 25.8184 41.0004 27.9184 41.0004 30.4834Z" stroke="#292D32" stroke-width="2" stroke-linecap="round" stroke-linejoin="round"/>
<path d="M50.0004 24.6651V41.7054C50.0004 43.8805 48.4404 44.7955 46.5354 43.7455L41.0002 40.6554V30.4852C41.0002 27.9201 38.9002 25.8201 36.3352 25.8201H29V24.6651C29 22.1 31.1 20 33.6651 20H45.3353C47.9004 20 50.0004 22.1 50.0004 24.6651Z" stroke="#292D32" stroke-width="2" stroke-linecap="round" stroke-linejoin="round"/>
</svg>
