<svg width="70" height="70" viewBox="0 0 70 70" fill="none" xmlns="http://www.w3.org/2000/svg">
<rect width="70" height="70" rx="35" fill="#FFF066"/>
<path d="M29.75 45.5H29C23 45.5 20 44 20 36.5V29C20 23 23 20 29 20H41C47 20 50 23 50 29V36.5C50 42.5 47 45.5 41 45.5H40.25C39.785 45.5 39.335 45.725 39.05 46.1L36.8 49.1C35.81 50.42 34.19 50.42 33.2 49.1L30.95 46.1C30.71 45.77 30.155 45.5 29.75 45.5Z" stroke="white" stroke-width="2" stroke-miterlimit="10" stroke-linecap="round" stroke-linejoin="round"/>
<path d="M41 33.5H41.0133" stroke="white" stroke-width="2" stroke-linecap="round" stroke-linejoin="round"/>
<path d="M34.9922 33.5H35.0057" stroke="white" stroke-width="2" stroke-linecap="round" stroke-linejoin="round"/>
<path d="M28.9922 33.5H29.0057" stroke="white" stroke-width="2" stroke-linecap="round" stroke-linejoin="round"/>
</svg>
