<svg width="67" height="26" viewBox="0 0 67 26" fill="none" xmlns="http://www.w3.org/2000/svg">
<rect x="0.171875" y="0.927246" width="66" height="25" rx="12.5" fill="#DCEFCD"/>
<path d="M17.5459 7.89125H18.5539V20.4912H17.5459V7.89125ZM15.4319 13.0152H17.9099V13.8692H15.4319V13.0152ZM12.2679 9.52925H13.2619C13.2619 12.7072 12.1279 15.7452 8.52988 17.7752L7.91388 17.0192C11.1339 15.2412 12.2679 12.6092 12.2679 9.71125V9.52925ZM8.37588 9.52925H12.6179V10.3832H8.37588V9.52925ZM14.7459 8.22725H15.7399V19.8612H14.7459V8.22725ZM30.0328 7.90525H31.0688V17.1312H30.0328V7.90525ZM23.0328 19.3432H31.4748V20.2112H23.0328V19.3432ZM23.0328 16.1792H24.0548V19.6232H23.0328V16.1792ZM24.3348 8.78725C26.1968 8.78725 27.5968 10.0612 27.5968 11.8672C27.5968 13.6872 26.1968 14.9612 24.3348 14.9612C22.4588 14.9612 21.0588 13.6872 21.0588 11.8672C21.0588 10.0612 22.4588 8.78725 24.3348 8.78725ZM24.3348 9.68325C23.0468 9.68325 22.0808 10.5932 22.0808 11.8672C22.0808 13.1412 23.0468 14.0512 24.3348 14.0512C25.6228 14.0512 26.5888 13.1412 26.5888 11.8672C26.5888 10.5932 25.6228 9.68325 24.3348 9.68325ZM33.6437 14.2472H45.0257V15.0872H33.6437V14.2472ZM38.8237 12.4412H39.8597V14.5412H38.8237V12.4412ZM39.3277 16.0812C42.0157 16.0812 43.6257 16.8652 43.6257 18.2792C43.6257 19.6792 42.0157 20.4632 39.3277 20.4632C36.6397 20.4632 35.0297 19.6792 35.0297 18.2792C35.0297 16.8652 36.6397 16.0812 39.3277 16.0812ZM39.3277 16.8932C37.2977 16.8932 36.0797 17.3972 36.0797 18.2792C36.0797 19.1472 37.2977 19.6652 39.3277 19.6652C41.3577 19.6652 42.5757 19.1472 42.5757 18.2792C42.5757 17.3972 41.3577 16.8932 39.3277 16.8932ZM35.1697 8.21325H36.1917V9.66925H42.5057V8.21325H43.5417V12.8332H35.1697V8.21325ZM36.1917 10.4812V11.9932H42.5057V10.4812H36.1917ZM49.6586 8.99725H50.5126V11.3352C50.5126 14.0652 48.9306 16.7392 46.9986 17.7892L46.3686 16.9492C48.1466 16.0532 49.6586 13.6312 49.6586 11.3352V8.99725ZM49.8406 8.99725H50.6806V11.3352C50.6806 13.5472 52.1786 15.8432 53.9286 16.7112L53.2846 17.5372C51.3946 16.5292 49.8406 13.9812 49.8406 11.3352V8.99725ZM55.1326 7.89125H56.1826V20.4912H55.1326V7.89125ZM55.9306 13.0432H58.2826V13.9112H55.9306V13.0432Z" fill="#6F9E73"/>
</svg>
