<svg width="32" height="32" viewBox="0 0 32 32" fill="none" xmlns="http://www.w3.org/2000/svg">
<path d="M30.9553 25.4952C30.9553 26.0353 30.8353 26.5903 30.5803 27.1303C30.3253 27.6703 29.9953 28.1803 29.5603 28.6603C28.8253 29.4703 28.0153 30.0553 27.1003 30.4303C26.2003 30.8053 25.2252 31.0003 24.1752 31.0003C22.6452 31.0003 21.0102 30.6403 19.2852 29.9053C17.5602 29.1703 15.8352 28.1803 14.1251 26.9353C12.4001 25.6753 10.7651 24.2802 9.20508 22.7352C7.66007 21.1752 6.26505 19.5402 5.02004 17.8302C3.79003 16.1202 2.80002 14.4101 2.08001 12.7151C1.36 11.0051 1 9.37008 1 7.81007C1 6.79006 1.18 5.81505 1.54001 4.91504C1.90001 4.00003 2.47001 3.16002 3.26502 2.41001C4.22503 1.465 5.27504 1 6.38506 1C6.80506 1 7.22506 1.09 7.60007 1.27C7.99007 1.45 8.33507 1.72001 8.60508 2.11001L12.0851 7.01506C12.3551 7.39006 12.5501 7.73507 12.6851 8.06507C12.8201 8.38007 12.8951 8.69508 12.8951 8.98008C12.8951 9.34008 12.7901 9.70009 12.5801 10.0451C12.3851 10.3901 12.1001 10.7501 11.7401 11.1101L10.6001 12.2951C10.4351 12.4601 10.3601 12.6551 10.3601 12.8951C10.3601 13.0151 10.3751 13.1201 10.4051 13.2401C10.4501 13.3601 10.4951 13.4501 10.5251 13.5401C10.7951 14.0351 11.2601 14.6801 11.9201 15.4601C12.5951 16.2402 13.3151 17.0352 14.0951 17.8302C14.9051 18.6252 15.6851 19.3602 16.4802 20.0352C17.2602 20.6952 17.9052 21.1452 18.4152 21.4152C18.4902 21.4452 18.5802 21.4902 18.6852 21.5352C18.8052 21.5802 18.9252 21.5952 19.0602 21.5952C19.3152 21.5952 19.5102 21.5052 19.6752 21.3402L20.8152 20.2152C21.1902 19.8402 21.5502 19.5552 21.8952 19.3752C22.2402 19.1652 22.5852 19.0602 22.9602 19.0602C23.2452 19.0602 23.5452 19.1202 23.8752 19.2552C24.2052 19.3902 24.5502 19.5852 24.9252 19.8402L29.8903 23.3652C30.2803 23.6352 30.5503 23.9502 30.7153 24.3252C30.8653 24.7002 30.9553 25.0752 30.9553 25.4952Z" stroke="#292D32" stroke-width="2" stroke-miterlimit="10"/>
<path d="M25.7501 11.5001C25.7501 10.6 25.045 9.22003 23.995 8.09502C23.035 7.06001 21.76 6.25 20.5 6.25" stroke="#292D32" stroke-width="2" stroke-linecap="round" stroke-linejoin="round"/>
<path d="M31.0001 11.5001C31.0001 5.69505 26.3051 1 20.5 1" stroke="#292D32" stroke-width="2" stroke-linecap="round" stroke-linejoin="round"/>
</svg>
