<svg width="32" height="29" viewBox="0 0 32 29" fill="none" xmlns="http://www.w3.org/2000/svg">
<path d="M15.9864 19.43C12.9083 19.43 10.4102 17.088 10.4102 14.2023C10.4102 11.3166 12.9083 8.97461 15.9864 8.97461C19.0644 8.97461 21.5626 11.3166 21.5626 14.2023C21.5626 17.088 19.0644 19.43 15.9864 19.43ZM15.9864 11.0657C14.1425 11.0657 12.6406 12.4737 12.6406 14.2023C12.6406 15.9309 14.1425 17.3389 15.9864 17.3389C17.8302 17.3389 19.3321 15.9309 19.3321 14.2023C19.3321 12.4737 17.8302 11.0657 15.9864 11.0657Z" fill="#292D32"/>
<path d="M20.7584 28.4077C20.4461 28.4077 20.1338 28.3659 19.8216 28.2962C18.8996 28.0592 18.1264 27.5155 17.6357 26.7488L17.4572 26.47C16.5799 25.048 15.3755 25.048 14.4981 26.47L14.3346 26.7348C13.8439 27.5155 13.0706 28.0731 12.1487 28.2962C11.2119 28.5332 10.2454 28.4077 9.42751 27.9477L6.86989 26.5675C5.96282 26.0796 5.30855 25.285 5.02602 24.3231C4.75836 23.3612 4.89219 22.3714 5.41264 21.5211C5.84387 20.8101 5.96283 20.1688 5.71004 19.7646C5.45725 19.3603 4.81784 19.1233 3.94052 19.1233C1.76952 19.1233 0 17.4644 0 15.4291V12.9755C0 10.9402 1.76952 9.2813 3.94052 9.2813C4.81784 9.2813 5.45725 9.04431 5.71004 8.64004C5.96283 8.23576 5.85874 7.5945 5.41264 6.88353C4.89219 6.03316 4.75836 5.02944 5.02602 4.08149C5.29368 3.11959 5.94796 2.32498 6.86989 1.83706L9.44238 0.456951C11.1227 -0.477063 13.3383 0.0666167 14.3494 1.66978L14.5279 1.94859C15.4052 3.37052 16.6097 3.37052 17.487 1.94859L17.6506 1.68372C18.6617 0.0666167 20.8773 -0.477063 22.5725 0.470892L25.1301 1.851C26.0372 2.33892 26.6914 3.13353 26.974 4.09543C27.2416 5.05732 27.1078 6.0471 26.5874 6.89747C26.1561 7.60844 26.0372 8.2497 26.29 8.65398C26.5427 9.05825 27.1822 9.29524 28.0595 9.29524C30.2305 9.29524 32 10.9542 32 12.9895V15.443C32 17.4783 30.2305 19.1372 28.0595 19.1372C27.1822 19.1372 26.5427 19.3742 26.29 19.7785C26.0372 20.1828 26.1413 20.8241 26.5874 21.535C27.1078 22.3854 27.2565 23.3891 26.974 24.3371C26.7063 25.299 26.052 26.0936 25.1301 26.5815L22.5576 27.9616C21.9926 28.2543 21.3829 28.4077 20.7584 28.4077ZM15.9851 23.2497C17.3085 23.2497 18.5427 24.0304 19.3903 25.4105L19.5539 25.6754C19.7323 25.9681 20.0297 26.1772 20.3866 26.2609C20.7435 26.3445 21.1004 26.3027 21.3978 26.1354L23.9703 24.7413C24.3569 24.5322 24.6543 24.1837 24.7732 23.7655C24.8922 23.3473 24.8327 22.9151 24.6097 22.5527C23.7621 21.1865 23.658 19.7785 24.3123 18.7051C24.9665 17.6317 26.3197 17.0183 28.0149 17.0183C28.9665 17.0183 29.7249 16.3073 29.7249 15.4151V12.9616C29.7249 12.0833 28.9665 11.3584 28.0149 11.3584C26.3197 11.3584 24.9665 10.7451 24.3123 9.67163C23.658 8.59822 23.7621 7.19022 24.6097 5.82405C24.8327 5.4616 24.8922 5.02944 24.7732 4.61123C24.6543 4.19301 24.3717 3.85844 23.9851 3.63539L21.4126 2.25528C20.7732 1.89282 19.9256 2.10193 19.539 2.71532L19.3755 2.98019C18.5279 4.3603 17.2937 5.14097 15.9703 5.14097C14.6468 5.14097 13.4126 4.3603 12.5651 2.98019L12.4015 2.70138C12.0297 2.11587 11.197 1.90677 10.5576 2.25528L7.98513 3.64933C7.59851 3.85844 7.30112 4.20695 7.18216 4.62517C7.0632 5.04338 7.12268 5.47554 7.34572 5.83799C8.19331 7.20416 8.2974 8.61216 7.64312 9.68558C6.98885 10.759 5.63569 11.3724 3.94052 11.3724C2.98885 11.3724 2.23048 12.0833 2.23048 12.9755V15.4291C2.23048 16.3073 2.98885 17.0322 3.94052 17.0322C5.63569 17.0322 6.98885 17.6456 7.64312 18.719C8.2974 19.7925 8.19331 21.2004 7.34572 22.5666C7.12268 22.9291 7.0632 23.3612 7.18216 23.7794C7.30112 24.1977 7.58364 24.5322 7.97026 24.7553L10.5428 26.1354C10.855 26.3166 11.2268 26.3584 11.5688 26.2748C11.9256 26.1912 12.223 25.9681 12.4164 25.6754L12.5799 25.4105C13.4275 24.0443 14.6617 23.2497 15.9851 23.2497Z" fill="#292D32"/>
</svg>
