<svg width="20" height="20" viewBox="0 0 20 20" fill="none" xmlns="http://www.w3.org/2000/svg">
<g clip-path="url(#clip0_2260_5948)">
<path d="M10 20C15.5228 20 20 15.5228 20 10C20 4.47715 15.5228 0 10 0C4.47715 0 0 4.47715 0 10C0 15.5228 4.47715 20 10 20Z" fill="#FEE500"/>
<path d="M9.9964 6C7.23055 6 5 7.73744 5 9.84672C5 11.2159 5.92791 12.4147 7.31977 13.0992L6.84868 14.8124C6.8398 14.838 6.83844 14.8657 6.84474 14.892C6.85105 14.9184 6.86476 14.9426 6.88437 14.9618C6.91296 14.9863 6.94975 14.9999 6.98787 15C7.01948 14.9976 7.04946 14.9854 7.07352 14.9653L9.10065 13.6344C9.39988 13.6746 9.70151 13.6955 10.0036 13.6969C12.7659 13.6969 15 11.9595 15 9.84672C15 7.73397 12.7587 6 9.9964 6Z" fill="#392020"/>
<path d="M6.74989 9.37776H6.26241C6.202 9.37922 6.14233 9.36631 6.09037 9.34053C6.0673 9.32846 6.04747 9.31255 6.03212 9.29378C6.01676 9.27502 6.00622 9.25381 6.00116 9.23149C5.99961 9.21734 5.99961 9.20312 6.00116 9.18897C5.99964 9.16249 6.0058 9.13608 6.01911 9.11201C6.03243 9.08794 6.05249 9.06691 6.07762 9.05069C6.13317 9.01712 6.20022 8.99938 6.26879 9.00015H7.73757C7.79847 8.99836 7.85855 9.0123 7.90962 9.04004C7.93323 9.05157 7.95348 9.06734 7.96891 9.0862C7.98433 9.10505 7.99456 9.12653 7.99883 9.14908C8.00039 9.16234 8.00039 9.1757 7.99883 9.18897C8.00033 9.21583 7.99419 9.2426 7.9809 9.2671C7.9676 9.2916 7.94755 9.3131 7.92236 9.32988C7.86817 9.36341 7.80178 9.38033 7.73438 9.37776H7.26285V10.7765C7.26476 10.8062 7.25924 10.836 7.24662 10.864C7.23401 10.8919 7.21458 10.9173 7.18956 10.9386C7.16558 10.959 7.13675 10.975 7.10492 10.9855C7.0731 10.9961 7.03899 11.001 7.00477 10.9998C6.94494 11.0012 6.88637 10.9853 6.8391 10.9546C6.79409 10.9247 6.76355 10.8822 6.75307 10.835C6.74992 10.8156 6.74992 10.7959 6.75307 10.7765L6.74989 9.37776Z" fill="#FEE500"/>
<path d="M8.69921 9.13608C8.71293 9.0931 8.74512 9.05587 8.78962 9.03159C8.83703 9.00907 8.89106 8.99821 8.94549 9.00024H9.06396C9.12173 8.9985 9.17894 9.01026 9.22919 9.0342C9.28244 9.06421 9.32028 9.1099 9.33518 9.1622L9.95867 10.6381C9.97484 10.6766 9.98837 10.7159 9.9992 10.7557C10.0003 10.7722 10.0003 10.7888 9.9992 10.8053C10.0003 10.8308 9.99467 10.8561 9.98282 10.8796C9.97097 10.903 9.95316 10.924 9.93062 10.9411C9.90878 10.9599 9.88255 10.9747 9.85359 10.9846C9.82463 10.9944 9.79354 10.9993 9.76227 10.9986C9.71419 11.0026 9.6659 10.9929 9.62518 10.9711C9.58446 10.9493 9.55369 10.9167 9.53782 10.8785L9.40688 10.5572H8.58699L8.45605 10.8785C8.44057 10.9175 8.40942 10.9508 8.36792 10.9726C8.32643 10.9946 8.27715 11.0037 8.22848 10.9986C8.17576 10.9998 8.12412 10.986 8.08196 10.9594C8.04087 10.932 8.01315 10.8931 8.00401 10.8497C8.00236 10.835 8.00236 10.8201 8.00401 10.8053C7.99866 10.7794 7.99866 10.7529 8.00401 10.7269C8.00401 10.6982 8.02584 10.6669 8.03831 10.6381L8.69921 9.13608ZM9.01096 9.4783L8.7148 10.262H9.304L9.01096 9.4783Z" fill="#FEE500"/>
<path d="M10.0003 9.22357C9.9964 9.1639 10.027 9.1056 10.0856 9.0614C10.1154 9.0408 10.1511 9.02471 10.1904 9.01418C10.2298 9.00364 10.272 8.99888 10.3142 9.00022C10.3868 8.99964 10.4576 9.01554 10.5157 9.04543C10.5695 9.07662 10.6053 9.11999 10.6164 9.16771C10.6203 9.18623 10.6203 9.20504 10.6164 9.22357V10.622H11.682C11.7558 10.6213 11.8285 10.6351 11.8912 10.6618C11.9194 10.6738 11.9437 10.6896 11.9624 10.7084C11.9811 10.7272 11.9938 10.7485 11.9997 10.7708C11.9997 10.7708 11.9997 10.7974 11.9997 10.8107C12.0016 10.8372 11.994 10.8636 11.9779 10.8876C11.9617 10.9117 11.9373 10.9328 11.9068 10.949C11.8392 10.9825 11.7577 11.0002 11.6743 10.9994H10.3646C10.2812 11.0032 10.1983 10.9883 10.1282 10.9569C10.0656 10.9248 10.0238 10.8771 10.012 10.824C10.0091 10.7948 10.0091 10.7655 10.012 10.7363L10.0003 9.22357Z" fill="#FEE500"/>
<path d="M12.0228 9.22108C12.0208 9.1622 12.0473 9.1049 12.0972 9.06058C12.1479 9.02474 12.213 9.00358 12.2814 9.0007C12.3498 8.99783 12.4174 9.0134 12.4728 9.04477C12.5208 9.07537 12.5533 9.11828 12.5641 9.1658C12.5658 9.1842 12.5658 9.20268 12.5641 9.22108V9.86573L13.4202 9.09739C13.4532 9.07117 13.4882 9.0466 13.5251 9.02373C13.5599 9.00764 13.5997 8.99942 13.6401 9.00003C13.6993 8.99978 13.7571 9.01355 13.8059 9.0395C13.8289 9.05155 13.8485 9.0671 13.8637 9.08518C13.8788 9.10327 13.8891 9.12353 13.8939 9.14476C13.8952 9.14997 13.8952 9.15535 13.8939 9.16057C13.8923 9.16664 13.8923 9.1729 13.8939 9.17897C13.8938 9.20666 13.8844 9.23386 13.8668 9.25792C13.8489 9.2834 13.8273 9.3072 13.8025 9.32894L13.2408 9.80785L13.9176 10.6235V10.6499C13.9527 10.6875 13.9801 10.7293 13.9988 10.7735V10.7867C14.0027 10.8172 13.997 10.8479 13.9823 10.8764C13.9675 10.9048 13.9442 10.93 13.9142 10.9498C13.8577 10.983 13.7887 11.0006 13.718 10.9998C13.6709 11.0013 13.6243 10.9931 13.5826 10.9761C13.5375 10.9526 13.5004 10.921 13.4743 10.8841L12.845 10.0947L12.5438 10.3394V10.7788C12.5458 10.8376 12.5193 10.8949 12.4694 10.9393C12.4427 10.9596 12.4109 10.9755 12.3759 10.9859C12.341 10.9963 12.3038 11.0011 12.2664 10.9998C12.204 11.0009 12.1431 10.9851 12.0938 10.9551C12.046 10.9255 12.0136 10.8834 12.0025 10.8367C11.9992 10.8175 11.9992 10.798 12.0025 10.7788L12.0228 9.22108Z" fill="#FEE500"/>
</g>
<defs>
<clipPath id="clip0_2260_5948">
<rect width="20" height="20" fill="white"/>
</clipPath>
</defs>
</svg>
