<svg width="20" height="20" viewBox="0 0 20 20" fill="none" xmlns="http://www.w3.org/2000/svg">
<g clip-path="url(#clip0_2260_5975)">
<path d="M10 20C15.5228 20 20 15.5228 20 10C20 4.47715 15.5228 0 10 0C4.47715 0 0 4.47715 0 10C0 15.5228 4.47715 20 10 20Z" fill="white"/>
<g clip-path="url(#clip1_2260_5975)">
<path fill-rule="evenodd" clip-rule="evenodd" d="M13.68 10.0873C13.68 9.81548 13.6556 9.55412 13.6103 9.30322H10V10.786H12.063C11.9742 11.2652 11.7041 11.6712 11.2981 11.943V12.9048H12.537C13.2618 12.2374 13.68 11.2547 13.68 10.0873Z" fill="#4285F4"/>
<path fill-rule="evenodd" clip-rule="evenodd" d="M10.0037 13.833C11.0387 13.833 11.9064 13.4898 12.5407 12.9043L11.3018 11.9425C10.9586 12.1725 10.5195 12.3084 10.0037 12.3084C9.00532 12.3084 8.16025 11.6341 7.85881 10.728H6.57812V11.7212C7.20888 12.974 8.50525 13.833 10.0037 13.833Z" fill="#34A853"/>
<path fill-rule="evenodd" clip-rule="evenodd" d="M7.85247 10.7282C7.77581 10.4982 7.73225 10.2525 7.73225 9.99985C7.73225 9.74718 7.77581 9.50152 7.85247 9.2715V8.27832H6.57179C6.31217 8.79582 6.16406 9.38128 6.16406 9.99985C6.16406 10.6184 6.31217 11.2038 6.57179 11.7213L7.85247 10.7282Z" fill="#FBBC05"/>
<path fill-rule="evenodd" clip-rule="evenodd" d="M10.0037 7.69112C10.5665 7.69112 11.0718 7.88453 11.4691 8.26438L12.5686 7.16491C11.9047 6.54635 11.037 6.1665 10.0037 6.1665C8.50525 6.1665 7.20888 7.02552 6.57812 8.27832L7.85881 9.2715C8.16025 8.36544 9.00532 7.69112 10.0037 7.69112Z" fill="#EA4335"/>
</g>
</g>
<defs>
<clipPath id="clip0_2260_5975">
<rect width="20" height="20" fill="white"/>
</clipPath>
<clipPath id="clip1_2260_5975">
<rect width="8" height="8" fill="white" transform="translate(6 6)"/>
</clipPath>
</defs>
</svg>
