<svg width="57" height="30" viewBox="0 0 57 30" fill="none" xmlns="http://www.w3.org/2000/svg">
<rect x="0.15" y="0.15" width="56.7" height="29.7" rx="14.85" fill="white"/>
<path d="M21.464 10.248H22.682C22.682 13.44 20.442 15.722 16.802 16.744L16.326 15.834C19.532 14.924 21.464 13.09 21.464 10.738V10.248ZM16.984 10.248H22.248V11.186H16.984V10.248ZM25.44 9.436H26.602V16.66H25.44V9.436ZM22.696 12.684H25.664V13.65H22.696V12.684ZM18.44 17.192H26.602V21.924H18.44V17.192ZM25.468 18.13H19.588V20.972H25.468V18.13ZM31.7249 10.192H32.6489V11.886C32.6489 13.79 31.5709 15.792 29.7089 16.646L29.0789 15.736C30.7309 14.994 31.7249 13.328 31.7249 11.886V10.192ZM31.9069 10.192H32.8309V11.886C32.8309 13.328 33.7689 14.77 35.3929 15.428L34.7769 16.324C32.9429 15.554 31.9069 13.776 31.9069 11.886V10.192ZM38.6269 9.45H39.7329V17.094H38.6269V9.45ZM36.5829 12.726H38.9769V13.692H36.5829V12.726ZM35.9109 9.66H37.0169V17.024H35.9109V9.66ZM31.2489 17.78H39.7329V22.092H38.5849V18.732H31.2489V17.78Z" fill="black"/>
<rect x="0.15" y="0.15" width="56.7" height="29.7" rx="14.85" stroke="#BEBEBE" stroke-width="0.3"/>
</svg>
