<svg width="20" height="18" viewBox="0 0 20 18" fill="none" xmlns="http://www.w3.org/2000/svg">
<path d="M19.5 5.99088C19.5 12.1903 10.6964 17.2082 10.3215 17.4154C10.2227 17.4709 10.1122 17.5 10 17.5C9.88779 17.5 9.77734 17.4709 9.67853 17.4154C9.30362 17.2082 0.5 12.1903 0.5 5.99088C0.501572 4.53511 1.05614 3.13944 2.04204 2.11005C3.02794 1.08067 4.36466 0.501641 5.75893 0.5C7.51049 0.5 9.04406 1.28644 10 2.61576C10.9559 1.28644 12.4895 0.5 14.2411 0.5C15.6353 0.501641 16.9721 1.08067 17.958 2.11005C18.9439 3.13944 19.4984 4.53511 19.5 5.99088Z" fill="#9B9B9B"/>
</svg>
